<?xml version="1.0" encoding="UTF-8" standalone="no"?>
<!-- Created with Inkscape (http://www.inkscape.org/) -->

<svg
   xmlns:dc="http://purl.org/dc/elements/1.1/"
   xmlns:cc="http://creativecommons.org/ns#"
   xmlns:rdf="http://www.w3.org/1999/02/22-rdf-syntax-ns#"
   xmlns:svg="http://www.w3.org/2000/svg"
   xmlns="http://www.w3.org/2000/svg"
   xmlns:sodipodi="http://sodipodi.sourceforge.net/DTD/sodipodi-0.dtd"
   xmlns:inkscape="http://www.inkscape.org/namespaces/inkscape"
   id="svg2"
   version="1.1"
   inkscape:version="0.48.1 r9760"
   width="523.32806"
   height="499.67856"
   xml:space="preserve"
   sodipodi:docname="w1-d2.svg"><metadata
     id="metadata8"><rdf:RDF><cc:Work
         rdf:about=""><dc:format>image/svg+xml</dc:format><dc:type
           rdf:resource="http://purl.org/dc/dcmitype/StillImage" /><dc:title /></cc:Work></rdf:RDF></metadata><defs
     id="defs6" /><sodipodi:namedview
     pagecolor="#ffffff"
     bordercolor="#666666"
     borderopacity="1"
     objecttolerance="10"
     gridtolerance="10"
     guidetolerance="10"
     inkscape:pageopacity="0"
     inkscape:pageshadow="2"
     inkscape:window-width="640"
     inkscape:window-height="480"
     id="namedview4"
     showgrid="false"
     inkscape:zoom="0.30977928"
     inkscape:cx="196.56847"
     inkscape:cy="347.41073"
     inkscape:window-x="0"
     inkscape:window-y="24"
     inkscape:window-maximized="0"
     inkscape:current-layer="g10"
     units="cm"
     fit-margin-top="1"
     fit-margin-left="1"
     fit-margin-right="1"
     fit-margin-bottom="1" /><g
     id="g10"
     inkscape:groupmode="layer"
     inkscape:label="w1-d2"
     transform="matrix(1.25,0,0,-1.25,-175.47877,752.69645)"><g
       id="g12"><g
   id="g14"
   transform="matrix(1,0,0,-1,0,841.88977)"><path
     d="m 368.645,393.258 -129,88.535"
     style="fill:none;stroke:#000000;stroke-width:2.4000001;stroke-linecap:butt;stroke-linejoin:miter;stroke-miterlimit:4;stroke-opacity:1;stroke-dasharray:none"
     id="path16"
     inkscape:connector-curvature="0" /></g><g
   id="g18"
   transform="matrix(1,0.686335,0.686335,-1,0,841.88977)"><path
     d="m -53.966,439.325 3.96,-3.959 -13.851,3.959 13.852,3.956 -3.961,-3.956 z"
     style="fill:#000000;fill-opacity:1;fill-rule:evenodd;stroke:#000000;stroke-width:0.98938799;stroke-linecap:butt;stroke-linejoin:miter;stroke-miterlimit:4;stroke-opacity:1;stroke-dasharray:none"
     id="path20"
     inkscape:connector-curvature="0" /></g><g
   id="g22"
   transform="matrix(1,0,0,-1,0,841.88977)"><path
     d="m 205.234,552.285 c 0,-26.183 11.27,-47.406 25.168,-47.406 13.899,0 25.164,21.223 25.164,47.406 l -50.332,0 z"
     style="fill:#e6e6e6;fill-opacity:1;fill-rule:nonzero;stroke:#000000;stroke-width:1.67999995;stroke-linecap:butt;stroke-linejoin:miter;stroke-miterlimit:4;stroke-opacity:1;stroke-dasharray:none"
     id="path24"
     inkscape:connector-curvature="0" /></g><g
   id="g26"
   transform="matrix(1,0,0,-1,0,841.88977)"><path
     d="m 230.402,507.648 c -8.082,0 -14.632,-6.55 -14.632,-14.628 0,-8.082 6.55,-14.633 14.632,-14.633 8.078,0 14.629,6.551 14.629,14.633 0,8.078 -6.551,14.628 -14.629,14.628"
     style="fill:#e6e6e6;fill-opacity:1;fill-rule:nonzero;stroke:#000000;stroke-width:1.67999995;stroke-linecap:butt;stroke-linejoin:miter;stroke-miterlimit:4;stroke-opacity:1;stroke-dasharray:none"
     id="path28"
     inkscape:connector-curvature="0" /></g><text
   transform="matrix(1,0,0,-1,171.68108,263.35452)"
   id="text30"><tspan
     style="font-size:22.39999962px;font-variant:normal;font-weight:normal;writing-mode:lr-tb;fill:#000000;fill-opacity:1;fill-rule:nonzero;stroke:none;font-family:Trebuchet MS;-inkscape-font-specification:TrebuchetMS"
     x="0 6.2495999 18.48 27.350401 39.558399 50.7808 59.472 71.232002 80.102402 86.486397 98.492798"
     y="0"
     sodipodi:role="line"
     id="tspan32">Integration</tspan><tspan
     style="font-size:22.39999962px;font-variant:normal;font-weight:normal;writing-mode:lr-tb;fill:#000000;fill-opacity:1;fill-rule:nonzero;stroke:none;font-family:Trebuchet MS;-inkscape-font-specification:TrebuchetMS"
     x="13.518759 29.400358 41.160358 53.390759 65.150757 76.373161 88.581161"
     y="28"
     sodipodi:role="line"
     id="tspan34">Manager</tspan></text>

<g
   id="g36"
   transform="matrix(1,0,0,-1,0,841.88977)"><path
     d="m 229.801,398.48 c -15.305,0 -27.707,-4.601 -27.707,-10.277 0,-5.676 12.402,-10.277 27.707,-10.277 15.301,0 27.707,4.601 27.707,10.277 0,5.676 -12.406,10.277 -27.707,10.277"
     style="fill:#999999;fill-opacity:1;fill-rule:nonzero;stroke:#000000;stroke-width:1.67999995;stroke-linecap:butt;stroke-linejoin:miter;stroke-miterlimit:4;stroke-opacity:1;stroke-dasharray:none"
     id="path38"
     inkscape:connector-curvature="0" /></g><g
   id="g40"
   transform="matrix(1,0,0,-1,0,841.88977)"><path
     d="m 229.801,392.152 c -15.305,0 -27.707,-4.601 -27.707,-10.277 0,-5.676 12.402,-10.277 27.707,-10.277 15.301,0 27.707,4.601 27.707,10.277 0,5.676 -12.406,10.277 -27.707,10.277"
     style="fill:#333333;fill-opacity:1;fill-rule:nonzero;stroke:#000000;stroke-width:1.67999995;stroke-linecap:butt;stroke-linejoin:miter;stroke-miterlimit:4;stroke-opacity:1;stroke-dasharray:none"
     id="path42"
     inkscape:connector-curvature="0" /></g><g
   id="g44"
   transform="matrix(1,0,0,-1,0,841.88977)"><path
     d="m 229.801,385.109 c -15.305,0 -27.707,-4.601 -27.707,-10.277 0,-5.676 12.402,-10.277 27.707,-10.277 15.301,0 27.707,4.601 27.707,10.277 0,5.676 -12.406,10.277 -27.707,10.277"
     style="fill:#cccccc;fill-opacity:1;fill-rule:nonzero;stroke:#000000;stroke-width:1.67999995;stroke-linecap:butt;stroke-linejoin:miter;stroke-miterlimit:4;stroke-opacity:1;stroke-dasharray:none"
     id="path46"
     inkscape:connector-curvature="0" /></g><g
   id="g48"
   transform="matrix(1,0,0,-1,0,841.88977)"><path
     d="m 229.801,378.781 c -15.305,0 -27.707,-4.601 -27.707,-10.277 0,-5.676 12.402,-10.277 27.707,-10.277 15.301,0 27.707,4.601 27.707,10.277 0,5.676 -12.406,10.277 -27.707,10.277"
     style="fill:#999999;fill-opacity:1;fill-rule:nonzero;stroke:#000000;stroke-width:1.67999995;stroke-linecap:butt;stroke-linejoin:miter;stroke-miterlimit:4;stroke-opacity:1;stroke-dasharray:none"
     id="path50"
     inkscape:connector-curvature="0" /></g><g
   id="g52"
   transform="matrix(1,0,0,-1,0,841.88977)"><path
     d="m 229.801,372.133 c -15.305,0 -27.707,-4.602 -27.707,-10.278 0,-5.675 12.402,-10.277 27.707,-10.277 15.301,0 27.707,4.602 27.707,10.277 0,5.676 -12.406,10.278 -27.707,10.278"
     style="fill:#666666;fill-opacity:1;fill-rule:nonzero;stroke:#000000;stroke-width:1.67999995;stroke-linecap:butt;stroke-linejoin:miter;stroke-miterlimit:4;stroke-opacity:1;stroke-dasharray:none"
     id="path54"
     inkscape:connector-curvature="0" /></g><g
   id="g56"
   transform="matrix(1,0,0,-1,0,841.88977)"><path
     d="m 229.801,365.805 c -15.305,0 -27.707,-4.602 -27.707,-10.278 0,-5.675 12.402,-10.277 27.707,-10.277 15.301,0 27.707,4.602 27.707,10.277 0,5.676 -12.406,10.278 -27.707,10.278"
     style="fill:#999999;fill-opacity:1;fill-rule:nonzero;stroke:#000000;stroke-width:1.67999995;stroke-linecap:butt;stroke-linejoin:miter;stroke-miterlimit:4;stroke-opacity:1;stroke-dasharray:none"
     id="path58"
     inkscape:connector-curvature="0" /></g><g
   id="g60"
   transform="matrix(1,0,0,-1,0,841.88977)"><path
     d="m 229.801,358.762 c -15.305,0 -27.707,-4.602 -27.707,-10.278 0,-5.675 12.402,-10.277 27.707,-10.277 15.301,0 27.707,4.602 27.707,10.277 0,5.676 -12.406,10.278 -27.707,10.278"
     style="fill:#cccccc;fill-opacity:1;fill-rule:nonzero;stroke:#000000;stroke-width:1.67999995;stroke-linecap:butt;stroke-linejoin:miter;stroke-miterlimit:4;stroke-opacity:1;stroke-dasharray:none"
     id="path62"
     inkscape:connector-curvature="0" /></g><g
   id="g64"
   transform="matrix(1,0,0,-1,0,841.88977)"><path
     d="m 229.801,352.434 c -15.305,0 -27.707,-4.602 -27.707,-10.278 0,-5.676 12.402,-10.277 27.707,-10.277 15.301,0 27.707,4.601 27.707,10.277 0,5.676 -12.406,10.278 -27.707,10.278"
     style="fill:#666666;fill-opacity:1;fill-rule:nonzero;stroke:#000000;stroke-width:1.67999995;stroke-linecap:butt;stroke-linejoin:miter;stroke-miterlimit:4;stroke-opacity:1;stroke-dasharray:none"
     id="path66"
     inkscape:connector-curvature="0" /></g><g
   id="g68"
   transform="matrix(1,0,0,-1,0,841.88977)"><path
     d="m 354.961,553.461 c 0,-26.184 11.269,-47.406 25.168,-47.406 13.898,0 25.164,21.222 25.164,47.406 l -50.332,0 z"
     style="fill:#666666;fill-opacity:1;fill-rule:nonzero;stroke:#000000;stroke-width:1.67999995;stroke-linecap:butt;stroke-linejoin:miter;stroke-miterlimit:4;stroke-opacity:1;stroke-dasharray:none"
     id="path70"
     inkscape:connector-curvature="0" /></g><g
   id="g72"
   transform="matrix(1,0,0,-1,0,841.88977)"><path
     d="m 380.129,508.824 c -8.082,0 -14.633,-6.551 -14.633,-14.633 0,-8.078 6.551,-14.629 14.633,-14.629 8.078,0 14.629,6.551 14.629,14.629 0,8.082 -6.551,14.633 -14.629,14.633"
     style="fill:#666666;fill-opacity:1;fill-rule:nonzero;stroke:#000000;stroke-width:1.67999995;stroke-linecap:butt;stroke-linejoin:miter;stroke-miterlimit:4;stroke-opacity:1;stroke-dasharray:none"
     id="path74"
     inkscape:connector-curvature="0" /></g><text
   transform="matrix(1,0,0,-1,354.944,262.21742)"
   id="text76"><tspan
     style="font-size:22.39999962px;font-variant:normal;font-weight:normal;writing-mode:lr-tb;fill:#000000;fill-opacity:1;fill-rule:nonzero;stroke:none;font-family:Trebuchet MS;-inkscape-font-specification:TrebuchetMS"
     x="0 13.7312 25.939199 36.892799"
     y="0"
     sodipodi:role="line"
     id="tspan78">DevA</tspan></text>

<g
   id="g80"
   transform="matrix(1,0,0,-1,0,841.88977)"><path
     d="m 479.527,553.461 c 0,-26.184 11.27,-47.406 25.168,-47.406 13.899,0 25.164,21.222 25.164,47.406 l -50.332,0 z"
     style="fill:#666666;fill-opacity:1;fill-rule:nonzero;stroke:#000000;stroke-width:1.67999995;stroke-linecap:butt;stroke-linejoin:miter;stroke-miterlimit:4;stroke-opacity:1;stroke-dasharray:none"
     id="path82"
     inkscape:connector-curvature="0" /></g><g
   id="g84"
   transform="matrix(1,0,0,-1,0,841.88977)"><path
     d="m 504.695,508.824 c -8.082,0 -14.633,-6.551 -14.633,-14.633 0,-8.078 6.551,-14.629 14.633,-14.629 8.078,0 14.629,6.551 14.629,14.629 0,8.082 -6.551,14.633 -14.629,14.633"
     style="fill:#666666;fill-opacity:1;fill-rule:nonzero;stroke:#000000;stroke-width:1.67999995;stroke-linecap:butt;stroke-linejoin:miter;stroke-miterlimit:4;stroke-opacity:1;stroke-dasharray:none"
     id="path86"
     inkscape:connector-curvature="0" /></g><text
   transform="matrix(1,0,0,-1,479.14962,262.17914)"
   id="text88"><tspan
     style="font-size:22.39999962px;font-variant:normal;font-weight:normal;writing-mode:lr-tb;fill:#000000;fill-opacity:1;fill-rule:nonzero;stroke:none;font-family:Trebuchet MS;-inkscape-font-specification:TrebuchetMS"
     x="0 13.7312 25.939199 36.892799"
     y="0"
     sodipodi:role="line"
     id="tspan90">DevB</tspan><tspan
     style="font-size:22.39999962px;font-variant:normal;font-weight:normal;writing-mode:lr-tb;fill:#000000;fill-opacity:1;fill-rule:nonzero;stroke:none;font-family:Trebuchet MS;-inkscape-font-specification:TrebuchetMS"
     x="-286.46683 -273.81082 -267.22525 -255.01724 -245.96764 -236.94043 -224.73244"
     y="-295.11594"
     sodipodi:role="line"
     id="tspan92">Blessed</tspan><tspan
     style="font-size:22.39999962px;font-variant:normal;font-weight:normal;writing-mode:lr-tb;fill:#000000;fill-opacity:1;fill-rule:nonzero;stroke:none;font-family:Trebuchet MS;-inkscape-font-specification:TrebuchetMS"
     x="-273.7356 -261.61719 -249.43159 -236.95479"
     y="-267.11594"
     sodipodi:role="line"
     id="tspan94">Repo</tspan></text>

<g
   id="g96"
   transform="matrix(1,0,0,-1,0,841.88977)"><path
     d="m 186.012,538.926 c -9.266,0 -16.774,-2.785 -16.774,-6.223 0,-3.437 7.508,-6.223 16.774,-6.223 9.261,0 16.773,2.786 16.773,6.223 0,3.438 -7.512,6.223 -16.773,6.223"
     style="fill:#999999;fill-opacity:1;fill-rule:nonzero;stroke:#000000;stroke-width:1.01705205;stroke-linecap:butt;stroke-linejoin:miter;stroke-miterlimit:4;stroke-opacity:1;stroke-dasharray:none"
     id="path98"
     inkscape:connector-curvature="0" /></g><g
   id="g100"
   transform="matrix(1,0,0,-1,0,841.88977)"><path
     d="m 186.012,535.094 c -9.266,0 -16.774,-2.785 -16.774,-6.223 0,-3.433 7.508,-6.223 16.774,-6.223 9.261,0 16.773,2.79 16.773,6.223 0,3.438 -7.512,6.223 -16.773,6.223"
     style="fill:#333333;fill-opacity:1;fill-rule:nonzero;stroke:#000000;stroke-width:1.01705205;stroke-linecap:butt;stroke-linejoin:miter;stroke-miterlimit:4;stroke-opacity:1;stroke-dasharray:none"
     id="path102"
     inkscape:connector-curvature="0" /></g><g
   id="g104"
   transform="matrix(1,0,0,-1,0,841.88977)"><path
     d="m 186.012,530.832 c -9.266,0 -16.774,-2.785 -16.774,-6.223 0,-3.437 7.508,-6.222 16.774,-6.222 9.261,0 16.773,2.785 16.773,6.222 0,3.438 -7.512,6.223 -16.773,6.223"
     style="fill:#cccccc;fill-opacity:1;fill-rule:nonzero;stroke:#000000;stroke-width:1.01705205;stroke-linecap:butt;stroke-linejoin:miter;stroke-miterlimit:4;stroke-opacity:1;stroke-dasharray:none"
     id="path106"
     inkscape:connector-curvature="0" /></g><g
   id="g108"
   transform="matrix(1,0,0,-1,0,841.88977)"><path
     d="m 186.012,527 c -9.266,0 -16.774,-2.785 -16.774,-6.223 0,-3.437 7.508,-6.222 16.774,-6.222 9.261,0 16.773,2.785 16.773,6.222 0,3.438 -7.512,6.223 -16.773,6.223"
     style="fill:#999999;fill-opacity:1;fill-rule:nonzero;stroke:#000000;stroke-width:1.01705205;stroke-linecap:butt;stroke-linejoin:miter;stroke-miterlimit:4;stroke-opacity:1;stroke-dasharray:none"
     id="path110"
     inkscape:connector-curvature="0" /></g><g
   id="g112"
   transform="matrix(1,0,0,-1,0,841.88977)"><path
     d="m 186.012,522.977 c -9.266,0 -16.774,-2.789 -16.774,-6.223 0,-3.438 7.508,-6.223 16.774,-6.223 9.261,0 16.773,2.785 16.773,6.223 0,3.434 -7.512,6.223 -16.773,6.223"
     style="fill:#666666;fill-opacity:1;fill-rule:nonzero;stroke:#000000;stroke-width:1.01705205;stroke-linecap:butt;stroke-linejoin:miter;stroke-miterlimit:4;stroke-opacity:1;stroke-dasharray:none"
     id="path114"
     inkscape:connector-curvature="0" /></g><g
   id="g116"
   transform="matrix(1,0,0,-1,0,841.88977)"><path
     d="m 186.012,519.145 c -9.266,0 -16.774,-2.786 -16.774,-6.223 0,-3.438 7.508,-6.223 16.774,-6.223 9.261,0 16.773,2.785 16.773,6.223 0,3.437 -7.512,6.223 -16.773,6.223"
     style="fill:#999999;fill-opacity:1;fill-rule:nonzero;stroke:#000000;stroke-width:1.01705205;stroke-linecap:butt;stroke-linejoin:miter;stroke-miterlimit:4;stroke-opacity:1;stroke-dasharray:none"
     id="path118"
     inkscape:connector-curvature="0" /></g><g
   id="g120"
   transform="matrix(1,0,0,-1,0,841.88977)"><path
     d="m 186.012,514.879 c -9.266,0 -16.774,-2.785 -16.774,-6.223 0,-3.433 7.508,-6.222 16.774,-6.222 9.261,0 16.773,2.789 16.773,6.222 0,3.438 -7.512,6.223 -16.773,6.223"
     style="fill:#cccccc;fill-opacity:1;fill-rule:nonzero;stroke:#000000;stroke-width:1.01705205;stroke-linecap:butt;stroke-linejoin:miter;stroke-miterlimit:4;stroke-opacity:1;stroke-dasharray:none"
     id="path122"
     inkscape:connector-curvature="0" /></g><g
   id="g124"
   transform="matrix(1,0,0,-1,0,841.88977)"><path
     d="m 186.012,511.051 c -9.266,0 -16.774,-2.789 -16.774,-6.223 0,-3.437 7.508,-6.223 16.774,-6.223 9.261,0 16.773,2.786 16.773,6.223 0,3.434 -7.512,6.223 -16.773,6.223"
     style="fill:#666666;fill-opacity:1;fill-rule:nonzero;stroke:#000000;stroke-width:1.01705205;stroke-linecap:butt;stroke-linejoin:miter;stroke-miterlimit:4;stroke-opacity:1;stroke-dasharray:none"
     id="path126"
     inkscape:connector-curvature="0" /></g><g
   id="g128"
   transform="matrix(1,0,0,-1,0,841.88977)"><path
     d="m 380.008,400.289 c -9.266,0 -16.774,-2.785 -16.774,-6.223 0,-3.437 7.508,-6.222 16.774,-6.222 9.262,0 16.773,2.785 16.773,6.222 0,3.438 -7.511,6.223 -16.773,6.223"
     style="fill:#999999;fill-opacity:1;fill-rule:nonzero;stroke:#000000;stroke-width:1.01705205;stroke-linecap:butt;stroke-linejoin:miter;stroke-miterlimit:4;stroke-opacity:1;stroke-dasharray:none"
     id="path130"
     inkscape:connector-curvature="0" /></g><g
   id="g132"
   transform="matrix(1,0,0,-1,0,841.88977)"><path
     d="m 380.008,396.457 c -9.266,0 -16.774,-2.785 -16.774,-6.223 0,-3.437 7.508,-6.222 16.774,-6.222 9.262,0 16.773,2.785 16.773,6.222 0,3.438 -7.511,6.223 -16.773,6.223"
     style="fill:#333333;fill-opacity:1;fill-rule:nonzero;stroke:#000000;stroke-width:1.01705205;stroke-linecap:butt;stroke-linejoin:miter;stroke-miterlimit:4;stroke-opacity:1;stroke-dasharray:none"
     id="path134"
     inkscape:connector-curvature="0" /></g><g
   id="g136"
   transform="matrix(1,0,0,-1,0,841.88977)"><path
     d="m 380.008,392.195 c -9.266,0 -16.774,-2.789 -16.774,-6.222 0,-3.438 7.508,-6.223 16.774,-6.223 9.262,0 16.773,2.785 16.773,6.223 0,3.433 -7.511,6.222 -16.773,6.222"
     style="fill:#cccccc;fill-opacity:1;fill-rule:nonzero;stroke:#000000;stroke-width:1.01705205;stroke-linecap:butt;stroke-linejoin:miter;stroke-miterlimit:4;stroke-opacity:1;stroke-dasharray:none"
     id="path138"
     inkscape:connector-curvature="0" /></g><g
   id="g140"
   transform="matrix(1,0,0,-1,0,841.88977)"><path
     d="m 380.008,388.363 c -9.266,0 -16.774,-2.785 -16.774,-6.222 0,-3.438 7.508,-6.223 16.774,-6.223 9.262,0 16.773,2.785 16.773,6.223 0,3.437 -7.511,6.222 -16.773,6.222"
     style="fill:#999999;fill-opacity:1;fill-rule:nonzero;stroke:#000000;stroke-width:1.01705205;stroke-linecap:butt;stroke-linejoin:miter;stroke-miterlimit:4;stroke-opacity:1;stroke-dasharray:none"
     id="path142"
     inkscape:connector-curvature="0" /></g><g
   id="g144"
   transform="matrix(1,0,0,-1,0,841.88977)"><path
     d="m 380.008,384.336 c -9.266,0 -16.774,-2.785 -16.774,-6.223 0,-3.433 7.508,-6.222 16.774,-6.222 9.262,0 16.773,2.789 16.773,6.222 0,3.438 -7.511,6.223 -16.773,6.223"
     style="fill:#666666;fill-opacity:1;fill-rule:nonzero;stroke:#000000;stroke-width:1.01705205;stroke-linecap:butt;stroke-linejoin:miter;stroke-miterlimit:4;stroke-opacity:1;stroke-dasharray:none"
     id="path146"
     inkscape:connector-curvature="0" /></g><g
   id="g148"
   transform="matrix(1,0,0,-1,0,841.88977)"><path
     d="m 380.008,380.508 c -9.266,0 -16.774,-2.789 -16.774,-6.223 0,-3.437 7.508,-6.223 16.774,-6.223 9.262,0 16.773,2.786 16.773,6.223 0,3.434 -7.511,6.223 -16.773,6.223"
     style="fill:#999999;fill-opacity:1;fill-rule:nonzero;stroke:#000000;stroke-width:1.01705205;stroke-linecap:butt;stroke-linejoin:miter;stroke-miterlimit:4;stroke-opacity:1;stroke-dasharray:none"
     id="path150"
     inkscape:connector-curvature="0" /></g><g
   id="g152"
   transform="matrix(1,0,0,-1,0,841.88977)"><path
     d="m 380.008,376.242 c -9.266,0 -16.774,-2.785 -16.774,-6.222 0,-3.438 7.508,-6.223 16.774,-6.223 9.262,0 16.773,2.785 16.773,6.223 0,3.437 -7.511,6.222 -16.773,6.222"
     style="fill:#cccccc;fill-opacity:1;fill-rule:nonzero;stroke:#000000;stroke-width:1.01705205;stroke-linecap:butt;stroke-linejoin:miter;stroke-miterlimit:4;stroke-opacity:1;stroke-dasharray:none"
     id="path154"
     inkscape:connector-curvature="0" /></g><g
   id="g156"
   transform="matrix(1,0,0,-1,0,841.88977)"><path
     d="m 380.008,372.41 c -9.266,0 -16.774,-2.785 -16.774,-6.222 0,-3.434 7.508,-6.223 16.774,-6.223 9.262,0 16.773,2.789 16.773,6.223 0,3.437 -7.511,6.222 -16.773,6.222"
     style="fill:#666666;fill-opacity:1;fill-rule:nonzero;stroke:#000000;stroke-width:1.01705205;stroke-linecap:butt;stroke-linejoin:miter;stroke-miterlimit:4;stroke-opacity:1;stroke-dasharray:none"
     id="path158"
     inkscape:connector-curvature="0" /></g><g
   id="g160"
   transform="matrix(1,0,0,-1,0,841.88977)"><path
     d="m 505.805,403.246 c -9.262,0 -16.774,-2.785 -16.774,-6.219 0,-3.437 7.512,-6.222 16.774,-6.222 9.265,0 16.773,2.785 16.773,6.222 0,3.434 -7.508,6.219 -16.773,6.219"
     style="fill:#999999;fill-opacity:1;fill-rule:nonzero;stroke:#000000;stroke-width:1.01705205;stroke-linecap:butt;stroke-linejoin:miter;stroke-miterlimit:4;stroke-opacity:1;stroke-dasharray:none"
     id="path162"
     inkscape:connector-curvature="0" /></g><g
   id="g164"
   transform="matrix(1,0,0,-1,0,841.88977)"><path
     d="m 505.805,399.418 c -9.262,0 -16.774,-2.785 -16.774,-6.223 0,-3.437 7.512,-6.222 16.774,-6.222 9.265,0 16.773,2.785 16.773,6.222 0,3.438 -7.508,6.223 -16.773,6.223"
     style="fill:#333333;fill-opacity:1;fill-rule:nonzero;stroke:#000000;stroke-width:1.01705205;stroke-linecap:butt;stroke-linejoin:miter;stroke-miterlimit:4;stroke-opacity:1;stroke-dasharray:none"
     id="path166"
     inkscape:connector-curvature="0" /></g><g
   id="g168"
   transform="matrix(1,0,0,-1,0,841.88977)"><path
     d="m 505.805,395.152 c -9.262,0 -16.774,-2.785 -16.774,-6.222 0,-3.434 7.512,-6.223 16.774,-6.223 9.265,0 16.773,2.789 16.773,6.223 0,3.437 -7.508,6.222 -16.773,6.222"
     style="fill:#cccccc;fill-opacity:1;fill-rule:nonzero;stroke:#000000;stroke-width:1.01705205;stroke-linecap:butt;stroke-linejoin:miter;stroke-miterlimit:4;stroke-opacity:1;stroke-dasharray:none"
     id="path170"
     inkscape:connector-curvature="0" /></g><g
   id="g172"
   transform="matrix(1,0,0,-1,0,841.88977)"><path
     d="m 505.805,391.324 c -9.262,0 -16.774,-2.789 -16.774,-6.222 0,-3.438 7.512,-6.223 16.774,-6.223 9.265,0 16.773,2.785 16.773,6.223 0,3.433 -7.508,6.222 -16.773,6.222"
     style="fill:#999999;fill-opacity:1;fill-rule:nonzero;stroke:#000000;stroke-width:1.01705205;stroke-linecap:butt;stroke-linejoin:miter;stroke-miterlimit:4;stroke-opacity:1;stroke-dasharray:none"
     id="path174"
     inkscape:connector-curvature="0" /></g><g
   id="g176"
   transform="matrix(1,0,0,-1,0,841.88977)"><path
     d="m 505.805,387.297 c -9.262,0 -16.774,-2.785 -16.774,-6.223 0,-3.437 7.512,-6.222 16.774,-6.222 9.265,0 16.773,2.785 16.773,6.222 0,3.438 -7.508,6.223 -16.773,6.223"
     style="fill:#666666;fill-opacity:1;fill-rule:nonzero;stroke:#000000;stroke-width:1.01705205;stroke-linecap:butt;stroke-linejoin:miter;stroke-miterlimit:4;stroke-opacity:1;stroke-dasharray:none"
     id="path178"
     inkscape:connector-curvature="0" /></g><g
   id="g180"
   transform="matrix(1,0,0,-1,0,841.88977)"><path
     d="m 505.805,383.465 c -9.262,0 -16.774,-2.785 -16.774,-6.223 0,-3.433 7.512,-6.222 16.774,-6.222 9.265,0 16.773,2.789 16.773,6.222 0,3.438 -7.508,6.223 -16.773,6.223"
     style="fill:#999999;fill-opacity:1;fill-rule:nonzero;stroke:#000000;stroke-width:1.01705205;stroke-linecap:butt;stroke-linejoin:miter;stroke-miterlimit:4;stroke-opacity:1;stroke-dasharray:none"
     id="path182"
     inkscape:connector-curvature="0" /></g><g
   id="g184"
   transform="matrix(1,0,0,-1,0,841.88977)"><path
     d="m 505.805,379.203 c -9.262,0 -16.774,-2.785 -16.774,-6.223 0,-3.437 7.512,-6.222 16.774,-6.222 9.265,0 16.773,2.785 16.773,6.222 0,3.438 -7.508,6.223 -16.773,6.223"
     style="fill:#cccccc;fill-opacity:1;fill-rule:nonzero;stroke:#000000;stroke-width:1.01705205;stroke-linecap:butt;stroke-linejoin:miter;stroke-miterlimit:4;stroke-opacity:1;stroke-dasharray:none"
     id="path186"
     inkscape:connector-curvature="0" /></g><g
   id="g188"
   transform="matrix(1,0,0,-1,0,841.88977)"><path
     d="m 505.805,375.371 c -9.262,0 -16.774,-2.785 -16.774,-6.223 0,-3.437 7.512,-6.222 16.774,-6.222 9.265,0 16.773,2.785 16.773,6.222 0,3.438 -7.508,6.223 -16.773,6.223"
     style="fill:#666666;fill-opacity:1;fill-rule:nonzero;stroke:#000000;stroke-width:1.01705205;stroke-linecap:butt;stroke-linejoin:miter;stroke-miterlimit:4;stroke-opacity:1;stroke-dasharray:none"
     id="path190"
     inkscape:connector-curvature="0" /></g><g
   id="g192"
   transform="matrix(1,0,0,-1,0,841.88977)"><path
     d="m 229.789,476.719 1.242,-75.742"
     style="fill:none;stroke:#000000;stroke-width:2.4000001;stroke-linecap:butt;stroke-linejoin:miter;stroke-miterlimit:4;stroke-opacity:1;stroke-dasharray:none"
     id="path194"
     inkscape:connector-curvature="0" /></g><g
   id="g196"
   transform="matrix(-0.0163681,-1,-1,0.0163681,0,841.88977)"><path
     d="m 406.686,-237.528 4.801,-4.801 -16.801,4.798 16.802,4.8 -4.802,-4.797 z"
     style="fill:#000000;fill-opacity:1;fill-rule:evenodd;stroke:#000000;stroke-width:1.199839;stroke-linecap:butt;stroke-linejoin:miter;stroke-miterlimit:4;stroke-opacity:1;stroke-dasharray:none"
     id="path198"
     inkscape:connector-curvature="0" /></g><g
   id="g200"
   transform="matrix(1,0,0,-1,0,841.88977)"><path
     d="m 250.246,396.219 c 22.395,39.597 49.891,74.093 84.117,101.855"
     style="fill:none;stroke:#000000;stroke-width:2.4000001;stroke-linecap:butt;stroke-linejoin:miter;stroke-miterlimit:4;stroke-opacity:1;stroke-dasharray:none"
     id="path202"
     inkscape:connector-curvature="0" /></g><g
   id="g204"
   transform="matrix(-1,0.811075,0.811075,1,0,841.88977)"><path
     d="m -437.905,-136.854 3.728,-3.726 -13.048,3.727 13.049,3.729 -3.729,-3.73 z"
     style="fill:#000000;fill-opacity:1;fill-rule:evenodd;stroke:#000000;stroke-width:0.93198597;stroke-linecap:butt;stroke-linejoin:miter;stroke-miterlimit:4;stroke-opacity:1;stroke-dasharray:none"
     id="path206"
     inkscape:connector-curvature="0" /></g><g
   id="g208"
   transform="matrix(1,0,0,-1,0,841.88977)"><path
     d="m 257.566,390.254 c 77.368,53.68 140.688,82.769 202.516,109.254"
     style="fill:none;stroke:#000000;stroke-width:2.4000001;stroke-linecap:butt;stroke-linejoin:miter;stroke-miterlimit:4;stroke-opacity:1;stroke-dasharray:none"
     id="path210"
     inkscape:connector-curvature="0" /></g><g
   id="g212"
   transform="matrix(-1,0.42837,0.42837,1,0,841.88977)"><path
     d="m -560.721,-255.534 4.412,-4.41 -15.442,4.412 15.444,4.412 -4.414,-4.414 z"
     style="fill:#000000;fill-opacity:1;fill-rule:evenodd;stroke:#000000;stroke-width:1.10305405;stroke-linecap:butt;stroke-linejoin:miter;stroke-miterlimit:4;stroke-opacity:1;stroke-dasharray:none"
     id="path214"
     inkscape:connector-curvature="0" /></g><g
   id="g216"
   transform="matrix(1,0,0,-1,0,841.88977)"><path
     d="m 334.867,540.164 c -9.262,0 -16.773,-2.785 -16.773,-6.223 0,-3.433 7.511,-6.218 16.773,-6.218 9.266,0 16.774,2.785 16.774,6.218 0,3.438 -7.508,6.223 -16.774,6.223"
     style="fill:#e6e6e6;fill-opacity:1;fill-rule:nonzero;stroke:#000000;stroke-width:1.01705205;stroke-linecap:butt;stroke-linejoin:miter;stroke-miterlimit:4;stroke-opacity:1;stroke-dasharray:none"
     id="path218"
     inkscape:connector-curvature="0" /></g><g
   id="g220"
   transform="matrix(1,0,0,-1,0,841.88977)"><path
     d="m 334.867,536.336 c -9.262,0 -16.773,-2.789 -16.773,-6.223 0,-3.437 7.511,-6.222 16.773,-6.222 9.266,0 16.774,2.785 16.774,6.222 0,3.434 -7.508,6.223 -16.774,6.223"
     style="fill:#e6e6e6;fill-opacity:1;fill-rule:nonzero;stroke:#000000;stroke-width:1.01705205;stroke-linecap:butt;stroke-linejoin:miter;stroke-miterlimit:4;stroke-opacity:1;stroke-dasharray:none"
     id="path222"
     inkscape:connector-curvature="0" /></g><g
   id="g224"
   transform="matrix(1,0,0,-1,0,841.88977)"><path
     d="m 334.867,532.07 c -9.262,0 -16.773,-2.785 -16.773,-6.222 0,-3.434 7.511,-6.223 16.773,-6.223 9.266,0 16.774,2.789 16.774,6.223 0,3.437 -7.508,6.222 -16.774,6.222"
     style="fill:#e6e6e6;fill-opacity:1;fill-rule:nonzero;stroke:#000000;stroke-width:1.01705205;stroke-linecap:butt;stroke-linejoin:miter;stroke-miterlimit:4;stroke-opacity:1;stroke-dasharray:none"
     id="path226"
     inkscape:connector-curvature="0" /></g><g
   id="g228"
   transform="matrix(1,0,0,-1,0,841.88977)"><path
     d="m 334.867,528.238 c -9.262,0 -16.773,-2.785 -16.773,-6.218 0,-3.438 7.511,-6.223 16.773,-6.223 9.266,0 16.774,2.785 16.774,6.223 0,3.433 -7.508,6.218 -16.774,6.218"
     style="fill:#e6e6e6;fill-opacity:1;fill-rule:nonzero;stroke:#000000;stroke-width:1.01705205;stroke-linecap:butt;stroke-linejoin:miter;stroke-miterlimit:4;stroke-opacity:1;stroke-dasharray:none"
     id="path230"
     inkscape:connector-curvature="0" /></g><g
   id="g232"
   transform="matrix(1,0,0,-1,0,841.88977)"><path
     d="m 334.867,524.215 c -9.262,0 -16.773,-2.785 -16.773,-6.223 0,-3.437 7.511,-6.222 16.773,-6.222 9.266,0 16.774,2.785 16.774,6.222 0,3.438 -7.508,6.223 -16.774,6.223"
     style="fill:#e6e6e6;fill-opacity:1;fill-rule:nonzero;stroke:#000000;stroke-width:1.01705205;stroke-linecap:butt;stroke-linejoin:miter;stroke-miterlimit:4;stroke-opacity:1;stroke-dasharray:none"
     id="path234"
     inkscape:connector-curvature="0" /></g><g
   id="g236"
   transform="matrix(1,0,0,-1,0,841.88977)"><path
     d="m 334.867,520.383 c -9.262,0 -16.773,-2.785 -16.773,-6.223 0,-3.433 7.511,-6.222 16.773,-6.222 9.266,0 16.774,2.789 16.774,6.222 0,3.438 -7.508,6.223 -16.774,6.223"
     style="fill:#e6e6e6;fill-opacity:1;fill-rule:nonzero;stroke:#000000;stroke-width:1.01705205;stroke-linecap:butt;stroke-linejoin:miter;stroke-miterlimit:4;stroke-opacity:1;stroke-dasharray:none"
     id="path238"
     inkscape:connector-curvature="0" /></g><g
   id="g240"
   transform="matrix(1,0,0,-1,0,841.88977)"><path
     d="m 334.867,516.121 c -9.262,0 -16.773,-2.785 -16.773,-6.223 0,-3.437 7.511,-6.222 16.773,-6.222 9.266,0 16.774,2.785 16.774,6.222 0,3.438 -7.508,6.223 -16.774,6.223"
     style="fill:#e6e6e6;fill-opacity:1;fill-rule:nonzero;stroke:#000000;stroke-width:1.01705205;stroke-linecap:butt;stroke-linejoin:miter;stroke-miterlimit:4;stroke-opacity:1;stroke-dasharray:none"
     id="path242"
     inkscape:connector-curvature="0" /></g><g
   id="g244"
   transform="matrix(1,0,0,-1,0,841.88977)"><path
     d="m 334.867,512.289 c -9.262,0 -16.773,-2.785 -16.773,-6.223 0,-3.437 7.511,-6.222 16.773,-6.222 9.266,0 16.774,2.785 16.774,6.222 0,3.438 -7.508,6.223 -16.774,6.223"
     style="fill:#e6e6e6;fill-opacity:1;fill-rule:nonzero;stroke:#000000;stroke-width:1.01705205;stroke-linecap:butt;stroke-linejoin:miter;stroke-miterlimit:4;stroke-opacity:1;stroke-dasharray:none"
     id="path246"
     inkscape:connector-curvature="0" /></g><g
   id="g248"
   transform="matrix(1,0,0,-1,0,841.88977)"><path
     d="m 460.668,541.406 c -9.266,0 -16.773,-2.785 -16.773,-6.222 0,-3.438 7.507,-6.223 16.773,-6.223 9.262,0 16.773,2.785 16.773,6.223 0,3.437 -7.511,6.222 -16.773,6.222"
     style="fill:#e6e6e6;fill-opacity:1;fill-rule:nonzero;stroke:#000000;stroke-width:1.01705205;stroke-linecap:butt;stroke-linejoin:miter;stroke-miterlimit:4;stroke-opacity:1;stroke-dasharray:none"
     id="path250"
     inkscape:connector-curvature="0" /></g><g
   id="g252"
   transform="matrix(1,0,0,-1,0,841.88977)"><path
     d="m 460.668,537.574 c -9.266,0 -16.773,-2.785 -16.773,-6.222 0,-3.438 7.507,-6.223 16.773,-6.223 9.262,0 16.773,2.785 16.773,6.223 0,3.437 -7.511,6.222 -16.773,6.222"
     style="fill:#e6e6e6;fill-opacity:1;fill-rule:nonzero;stroke:#000000;stroke-width:1.01705205;stroke-linecap:butt;stroke-linejoin:miter;stroke-miterlimit:4;stroke-opacity:1;stroke-dasharray:none"
     id="path254"
     inkscape:connector-curvature="0" /></g><g
   id="g256"
   transform="matrix(1,0,0,-1,0,841.88977)"><path
     d="m 460.668,533.312 c -9.266,0 -16.773,-2.789 -16.773,-6.222 0,-3.438 7.507,-6.223 16.773,-6.223 9.262,0 16.773,2.785 16.773,6.223 0,3.433 -7.511,6.222 -16.773,6.222"
     style="fill:#e6e6e6;fill-opacity:1;fill-rule:nonzero;stroke:#000000;stroke-width:1.01705205;stroke-linecap:butt;stroke-linejoin:miter;stroke-miterlimit:4;stroke-opacity:1;stroke-dasharray:none"
     id="path258"
     inkscape:connector-curvature="0" /></g><g
   id="g260"
   transform="matrix(1,0,0,-1,0,841.88977)"><path
     d="m 460.668,529.48 c -9.266,0 -16.773,-2.785 -16.773,-6.222 0,-3.438 7.507,-6.223 16.773,-6.223 9.262,0 16.773,2.785 16.773,6.223 0,3.437 -7.511,6.222 -16.773,6.222"
     style="fill:#e6e6e6;fill-opacity:1;fill-rule:nonzero;stroke:#000000;stroke-width:1.01705205;stroke-linecap:butt;stroke-linejoin:miter;stroke-miterlimit:4;stroke-opacity:1;stroke-dasharray:none"
     id="path262"
     inkscape:connector-curvature="0" /></g><g
   id="g264"
   transform="matrix(1,0,0,-1,0,841.88977)"><path
     d="m 460.668,525.453 c -9.266,0 -16.773,-2.785 -16.773,-6.223 0,-3.433 7.507,-6.218 16.773,-6.218 9.262,0 16.773,2.785 16.773,6.218 0,3.438 -7.511,6.223 -16.773,6.223"
     style="fill:#e6e6e6;fill-opacity:1;fill-rule:nonzero;stroke:#000000;stroke-width:1.01705205;stroke-linecap:butt;stroke-linejoin:miter;stroke-miterlimit:4;stroke-opacity:1;stroke-dasharray:none"
     id="path266"
     inkscape:connector-curvature="0" /></g><g
   id="g268"
   transform="matrix(1,0,0,-1,0,841.88977)"><path
     d="m 460.668,521.625 c -9.266,0 -16.773,-2.789 -16.773,-6.223 0,-3.437 7.507,-6.222 16.773,-6.222 9.262,0 16.773,2.785 16.773,6.222 0,3.434 -7.511,6.223 -16.773,6.223"
     style="fill:#e6e6e6;fill-opacity:1;fill-rule:nonzero;stroke:#000000;stroke-width:1.01705205;stroke-linecap:butt;stroke-linejoin:miter;stroke-miterlimit:4;stroke-opacity:1;stroke-dasharray:none"
     id="path270"
     inkscape:connector-curvature="0" /></g><g
   id="g272"
   transform="matrix(1,0,0,-1,0,841.88977)"><path
     d="m 460.668,517.359 c -9.266,0 -16.773,-2.785 -16.773,-6.222 0,-3.434 7.507,-6.223 16.773,-6.223 9.262,0 16.773,2.789 16.773,6.223 0,3.437 -7.511,6.222 -16.773,6.222"
     style="fill:#e6e6e6;fill-opacity:1;fill-rule:nonzero;stroke:#000000;stroke-width:1.01705205;stroke-linecap:butt;stroke-linejoin:miter;stroke-miterlimit:4;stroke-opacity:1;stroke-dasharray:none"
     id="path274"
     inkscape:connector-curvature="0" /></g><g
   id="g276"
   transform="matrix(1,0,0,-1,0,841.88977)"><path
     d="m 460.668,513.527 c -9.266,0 -16.773,-2.785 -16.773,-6.218 0,-3.438 7.507,-6.223 16.773,-6.223 9.262,0 16.773,2.785 16.773,6.223 0,3.433 -7.511,6.218 -16.773,6.218"
     style="fill:#e6e6e6;fill-opacity:1;fill-rule:nonzero;stroke:#000000;stroke-width:1.01705205;stroke-linecap:butt;stroke-linejoin:miter;stroke-miterlimit:4;stroke-opacity:1;stroke-dasharray:none"
     id="path278"
     inkscape:connector-curvature="0" /></g><g
   id="g280"
   transform="matrix(1,0,0,-1,0,841.88977)"><path
     d="m 380.484,479.098 1.239,-75.743"
     style="fill:none;stroke:#000000;stroke-width:2.4000001;stroke-linecap:butt;stroke-linejoin:miter;stroke-miterlimit:4;stroke-opacity:1;stroke-dasharray:none"
     id="path282"
     inkscape:connector-curvature="0" /></g><g
   id="g284"
   transform="matrix(-0.0163681,-1,-1,0.0163681,0,841.88977)"><path
     d="m 406.599,-388.222 4.8,-4.797 -16.796,4.798 16.797,4.8 -4.801,-4.801 z"
     style="fill:#000000;fill-opacity:1;fill-rule:evenodd;stroke:#000000;stroke-width:1.199839;stroke-linecap:butt;stroke-linejoin:miter;stroke-miterlimit:4;stroke-opacity:1;stroke-dasharray:none"
     id="path286"
     inkscape:connector-curvature="0" /></g><g
   id="g288"
   transform="matrix(1,0,0,-1,0,841.88977)"><path
     d="m 506.281,480.578 1.239,-75.742"
     style="fill:none;stroke:#000000;stroke-width:2.4000001;stroke-linecap:butt;stroke-linejoin:miter;stroke-miterlimit:4;stroke-opacity:1;stroke-dasharray:none"
     id="path290"
     inkscape:connector-curvature="0" /></g><g
   id="g292"
   transform="matrix(-0.0163681,-1,-1,0.0163681,0,841.88977)"><path
     d="m 406.02,-514.009 4.801,-4.801 -16.797,4.802 16.797,4.799 -4.801,-4.8 z"
     style="fill:#000000;fill-opacity:1;fill-rule:evenodd;stroke:#000000;stroke-width:1.199839;stroke-linecap:butt;stroke-linejoin:miter;stroke-miterlimit:4;stroke-opacity:1;stroke-dasharray:none"
     id="path294"
     inkscape:connector-curvature="0" /></g><g
   id="g296"
   transform="matrix(1,0,0,-1,0,841.88977)"><path
     d="M 492.555,398.641 246.641,487.176"
     style="fill:none;stroke:#000000;stroke-width:2.4000001;stroke-linecap:butt;stroke-linejoin:miter;stroke-miterlimit:4;stroke-opacity:1;stroke-dasharray:none"
     id="path298"
     inkscape:connector-curvature="0" /></g><g
   id="g300"
   transform="matrix(1,0.360025,0.360025,-1,0,841.88977)"><path
     d="m 72.102,509.88 4.516,-4.514 -15.809,4.515 15.808,4.516 -4.515,-4.517 z"
     style="fill:#000000;fill-opacity:1;fill-rule:evenodd;stroke:#000000;stroke-width:1.12905598;stroke-linecap:butt;stroke-linejoin:miter;stroke-miterlimit:4;stroke-opacity:1;stroke-dasharray:none"
     id="path302"
     inkscape:connector-curvature="0" /></g><text
   transform="matrix(1,0,0,-1,377.44043,494.1471)"
   id="text304"><tspan
     style="font-size:22.39999962px;font-variant:normal;font-weight:normal;writing-mode:lr-tb;fill:#000000;fill-opacity:1;fill-rule:nonzero;stroke:none;font-family:Trebuchet MS;-inkscape-font-specification:TrebuchetMS"
     x="0 12.4992 24.729601 37.206402 43.792 50.175999 61.2864 68.006401 80.124802 92.332802 104.7872 116.816"
     y="0"
     sodipodi:role="line"
     id="tspan306">Public Repos</tspan></text>

</g></g></svg>