<?xml version="1.0" encoding="UTF-8" standalone="no"?>
<!-- Created with Inkscape (http://www.inkscape.org/) -->

<svg
   xmlns:dc="http://purl.org/dc/elements/1.1/"
   xmlns:cc="http://creativecommons.org/ns#"
   xmlns:rdf="http://www.w3.org/1999/02/22-rdf-syntax-ns#"
   xmlns:svg="http://www.w3.org/2000/svg"
   xmlns="http://www.w3.org/2000/svg"
   xmlns:sodipodi="http://sodipodi.sourceforge.net/DTD/sodipodi-0.dtd"
   xmlns:inkscape="http://www.inkscape.org/namespaces/inkscape"
   id="svg2"
   version="1.1"
   inkscape:version="0.48.1 r9760"
   width="491.82431"
   height="453.72824"
   xml:space="preserve"
   sodipodi:docname="w1-d1.svg"><metadata
     id="metadata8"><rdf:RDF><cc:Work
         rdf:about=""><dc:format>image/svg+xml</dc:format><dc:type
           rdf:resource="http://purl.org/dc/dcmitype/StillImage" /><dc:title /></cc:Work></rdf:RDF></metadata><defs
     id="defs6" /><sodipodi:namedview
     pagecolor="#ffffff"
     bordercolor="#666666"
     borderopacity="1"
     objecttolerance="10"
     gridtolerance="10"
     guidetolerance="10"
     inkscape:pageopacity="0"
     inkscape:pageshadow="2"
     inkscape:window-width="1240"
     inkscape:window-height="618"
     id="namedview4"
     showgrid="false"
     inkscape:zoom="0.87618812"
     inkscape:cx="249.69668"
     inkscape:cy="259.5248"
     inkscape:window-x="0"
     inkscape:window-y="24"
     inkscape:window-maximized="0"
     inkscape:current-layer="g10"
     units="cm"
     fit-margin-top="1"
     fit-margin-left="1"
     fit-margin-right="1"
     fit-margin-bottom="1" /><g
     id="g10"
     inkscape:groupmode="layer"
     inkscape:label="w1-d1"
     transform="matrix(1.25,0,0,-1.25,-129.08752,746.86414)"><g
       id="g12"><g
   id="g14"
   transform="matrix(1,0,0,-1,0,841.88977)"><path
     d="m 193.602,478.168 c 0,0 10.078,-32.031 59.668,-34.512 49.589,-2.48 53.269,-43.39 53.269,-43.39"
     style="fill:none;stroke:#000000;stroke-width:2.4000001;stroke-linecap:butt;stroke-linejoin:miter;stroke-miterlimit:4;stroke-opacity:1;stroke-dasharray:none"
     id="path16"
     inkscape:connector-curvature="0" /></g><g
   id="g18"
   transform="matrix(0.314589,1,1,-0.314589,0,841.88977)"><path
     d="m -370.53,313.049 4.58,-4.577 -16.025,4.576 16.026,4.579 -4.581,-4.578 z"
     style="fill:#000000;fill-opacity:1;fill-rule:evenodd;stroke:#000000;stroke-width:1.14469302;stroke-linecap:butt;stroke-linejoin:miter;stroke-miterlimit:4;stroke-opacity:1;stroke-dasharray:none"
     id="path20"
     inkscape:connector-curvature="0" /></g><g
   id="g22"
   transform="matrix(-0.0898761,-1,-1,0.0898761,0,841.88977)"><path
     d="m 379.287,-339.769 4.782,-4.777 -16.731,4.777 16.73,4.782 -4.781,-4.782 z"
     style="fill:#000000;fill-opacity:1;fill-rule:evenodd;stroke:#000000;stroke-width:1.19518304;stroke-linecap:butt;stroke-linejoin:miter;stroke-miterlimit:4;stroke-opacity:1;stroke-dasharray:none"
     id="path24"
     inkscape:connector-curvature="0" /></g><g
   id="g26"
   transform="matrix(1,0,0,-1,0,841.88977)"><path
     d="m 442.59,478.527 c 0,0 -10.074,-33.632 -59.664,-36.109 -49.59,-2.48 -53.27,-40.191 -53.27,-40.191"
     style="fill:none;stroke:#000000;stroke-width:2.4000001;stroke-linecap:butt;stroke-linejoin:miter;stroke-miterlimit:4;stroke-opacity:1;stroke-dasharray:none"
     id="path28"
     inkscape:connector-curvature="0" /></g><g
   id="g30"
   transform="matrix(-0.299623,1,1,0.299623,0,841.88977)"><path
     d="m -551.598,274.565 4.597,-4.6 -16.093,4.6 16.094,4.6 -4.598,-4.6 z"
     style="fill:#000000;fill-opacity:1;fill-rule:evenodd;stroke:#000000;stroke-width:1.14951098;stroke-linecap:butt;stroke-linejoin:miter;stroke-miterlimit:4;stroke-opacity:1;stroke-dasharray:none"
     id="path32"
     inkscape:connector-curvature="0" /></g><g
   id="g34"
   transform="matrix(0.0975024,-1,-1,-0.0975024,0,841.88977)"><path
     d="m 439.833,-287.705 4.775,-4.777 -16.72,4.776 16.721,4.779 -4.776,-4.778 z"
     style="fill:#000000;fill-opacity:1;fill-rule:evenodd;stroke:#000000;stroke-width:1.19433606;stroke-linecap:butt;stroke-linejoin:miter;stroke-miterlimit:4;stroke-opacity:1;stroke-dasharray:none"
     id="path36"
     inkscape:connector-curvature="0" /></g><g
   id="g38"
   transform="matrix(1,0,0,-1,0,841.88977)"><path
     d="m 168.078,552.512 c 0,-26.184 11.266,-47.407 25.164,-47.407 13.899,0 25.168,21.223 25.168,47.407 l -50.332,0 z"
     style="fill:#666666;fill-opacity:1;fill-rule:nonzero;stroke:#000000;stroke-width:1.67999995;stroke-linecap:butt;stroke-linejoin:miter;stroke-miterlimit:4;stroke-opacity:1;stroke-dasharray:none"
     id="path40"
     inkscape:connector-curvature="0" /></g><g
   id="g42"
   transform="matrix(1,0,0,-1,0,841.88977)"><path
     d="m 193.242,507.875 c -8.078,0 -14.629,-6.551 -14.629,-14.633 0,-8.078 6.551,-14.629 14.629,-14.629 8.082,0 14.633,6.551 14.633,14.629 0,8.082 -6.551,14.633 -14.633,14.633"
     style="fill:#666666;fill-opacity:1;fill-rule:nonzero;stroke:#000000;stroke-width:1.67999995;stroke-linecap:butt;stroke-linejoin:miter;stroke-miterlimit:4;stroke-opacity:1;stroke-dasharray:none"
     id="path44"
     inkscape:connector-curvature="0" /></g><text
   transform="matrix(1,0,0,-1,167.37605,263.12859)"
   id="text46"><tspan
     style="font-size:22.39999962px;font-variant:normal;font-weight:normal;writing-mode:lr-tb;fill:#000000;fill-opacity:1;fill-rule:nonzero;stroke:none;font-family:Trebuchet MS;-inkscape-font-specification:TrebuchetMS"
     x="0 13.7312 25.939199 36.892799"
     y="0"
     sodipodi:role="line"
     id="tspan48">DevA</tspan></text>

<g
   id="g50"
   transform="matrix(1,0,0,-1,0,841.88977)"><path
     d="m 317.219,478.168 1.238,-75.742"
     style="fill:none;stroke:#000000;stroke-width:2.4000001;stroke-linecap:butt;stroke-linejoin:miter;stroke-miterlimit:4;stroke-opacity:1;stroke-dasharray:none"
     id="path52"
     inkscape:connector-curvature="0" /></g><g
   id="g54"
   transform="matrix(0.0163681,1,1,-0.0163681,0,841.88977)"><path
     d="m -463.251,324.958 4.8,-4.798 -16.796,4.799 16.797,4.799 -4.801,-4.8 z"
     style="fill:#000000;fill-opacity:1;fill-rule:evenodd;stroke:#000000;stroke-width:1.199839;stroke-linecap:butt;stroke-linejoin:miter;stroke-miterlimit:4;stroke-opacity:1;stroke-dasharray:none"
     id="path56"
     inkscape:connector-curvature="0" /></g><g
   id="g58"
   transform="matrix(-0.0163681,-1,-1,0.0163681,0,841.88977)"><path
     d="m 406.704,-324.958 4.801,-4.801 -16.797,4.802 16.798,4.8 -4.802,-4.801 z"
     style="fill:#000000;fill-opacity:1;fill-rule:evenodd;stroke:#000000;stroke-width:1.199839;stroke-linecap:butt;stroke-linejoin:miter;stroke-miterlimit:4;stroke-opacity:1;stroke-dasharray:none"
     id="path60"
     inkscape:connector-curvature="0" /></g><g
   id="g62"
   transform="matrix(1,0,0,-1,0,841.88977)"><path
     d="m 316.84,403.148 c -15.305,0 -27.707,-4.601 -27.707,-10.277 0,-5.68 12.402,-10.281 27.707,-10.281 15.301,0 27.707,4.601 27.707,10.281 0,5.676 -12.406,10.277 -27.707,10.277"
     style="fill:#999999;fill-opacity:1;fill-rule:nonzero;stroke:#000000;stroke-width:1.67999995;stroke-linecap:butt;stroke-linejoin:miter;stroke-miterlimit:4;stroke-opacity:1;stroke-dasharray:none"
     id="path64"
     inkscape:connector-curvature="0" /></g><g
   id="g66"
   transform="matrix(1,0,0,-1,0,841.88977)"><path
     d="m 316.84,396.82 c -15.305,0 -27.707,-4.601 -27.707,-10.277 0,-5.68 12.402,-10.281 27.707,-10.281 15.301,0 27.707,4.601 27.707,10.281 0,5.676 -12.406,10.277 -27.707,10.277"
     style="fill:#333333;fill-opacity:1;fill-rule:nonzero;stroke:#000000;stroke-width:1.67999995;stroke-linecap:butt;stroke-linejoin:miter;stroke-miterlimit:4;stroke-opacity:1;stroke-dasharray:none"
     id="path68"
     inkscape:connector-curvature="0" /></g><g
   id="g70"
   transform="matrix(1,0,0,-1,0,841.88977)"><path
     d="m 316.84,389.777 c -15.305,0 -27.707,-4.601 -27.707,-10.277 0,-5.68 12.402,-10.281 27.707,-10.281 15.301,0 27.707,4.601 27.707,10.281 0,5.676 -12.406,10.277 -27.707,10.277"
     style="fill:#cccccc;fill-opacity:1;fill-rule:nonzero;stroke:#000000;stroke-width:1.67999995;stroke-linecap:butt;stroke-linejoin:miter;stroke-miterlimit:4;stroke-opacity:1;stroke-dasharray:none"
     id="path72"
     inkscape:connector-curvature="0" /></g><g
   id="g74"
   transform="matrix(1,0,0,-1,0,841.88977)"><path
     d="m 316.84,383.449 c -15.305,0 -27.707,-4.601 -27.707,-10.277 0,-5.68 12.402,-10.281 27.707,-10.281 15.301,0 27.707,4.601 27.707,10.281 0,5.676 -12.406,10.277 -27.707,10.277"
     style="fill:#999999;fill-opacity:1;fill-rule:nonzero;stroke:#000000;stroke-width:1.67999995;stroke-linecap:butt;stroke-linejoin:miter;stroke-miterlimit:4;stroke-opacity:1;stroke-dasharray:none"
     id="path76"
     inkscape:connector-curvature="0" /></g><g
   id="g78"
   transform="matrix(1,0,0,-1,0,841.88977)"><path
     d="m 316.84,376.801 c -15.305,0 -27.707,-4.602 -27.707,-10.281 0,-5.676 12.402,-10.278 27.707,-10.278 15.301,0 27.707,4.602 27.707,10.278 0,5.679 -12.406,10.281 -27.707,10.281"
     style="fill:#666666;fill-opacity:1;fill-rule:nonzero;stroke:#000000;stroke-width:1.67999995;stroke-linecap:butt;stroke-linejoin:miter;stroke-miterlimit:4;stroke-opacity:1;stroke-dasharray:none"
     id="path80"
     inkscape:connector-curvature="0" /></g><g
   id="g82"
   transform="matrix(1,0,0,-1,0,841.88977)"><path
     d="m 316.84,370.473 c -15.305,0 -27.707,-4.602 -27.707,-10.282 0,-5.675 12.402,-10.277 27.707,-10.277 15.301,0 27.707,4.602 27.707,10.277 0,5.68 -12.406,10.282 -27.707,10.282"
     style="fill:#999999;fill-opacity:1;fill-rule:nonzero;stroke:#000000;stroke-width:1.67999995;stroke-linecap:butt;stroke-linejoin:miter;stroke-miterlimit:4;stroke-opacity:1;stroke-dasharray:none"
     id="path84"
     inkscape:connector-curvature="0" /></g><g
   id="g86"
   transform="matrix(1,0,0,-1,0,841.88977)"><path
     d="m 316.84,363.43 c -15.305,0 -27.707,-4.602 -27.707,-10.278 0,-5.679 12.402,-10.281 27.707,-10.281 15.301,0 27.707,4.602 27.707,10.281 0,5.676 -12.406,10.278 -27.707,10.278"
     style="fill:#cccccc;fill-opacity:1;fill-rule:nonzero;stroke:#000000;stroke-width:1.67999995;stroke-linecap:butt;stroke-linejoin:miter;stroke-miterlimit:4;stroke-opacity:1;stroke-dasharray:none"
     id="path88"
     inkscape:connector-curvature="0" /></g><g
   id="g90"
   transform="matrix(1,0,0,-1,0,841.88977)"><path
     d="m 316.84,357.102 c -15.305,0 -27.707,-4.602 -27.707,-10.282 0,-5.675 12.402,-10.277 27.707,-10.277 15.301,0 27.707,4.602 27.707,10.277 0,5.68 -12.406,10.282 -27.707,10.282"
     style="fill:#666666;fill-opacity:1;fill-rule:nonzero;stroke:#000000;stroke-width:1.67999995;stroke-linecap:butt;stroke-linejoin:miter;stroke-miterlimit:4;stroke-opacity:1;stroke-dasharray:none"
     id="path92"
     inkscape:connector-curvature="0" /></g><g
   id="g94"
   transform="matrix(1,0,0,-1,0,841.88977)"><path
     d="m 292.645,552.512 c 0,-26.184 11.265,-47.407 25.164,-47.407 13.898,0 25.168,21.223 25.168,47.407 l -50.332,0 z"
     style="fill:#666666;fill-opacity:1;fill-rule:nonzero;stroke:#000000;stroke-width:1.67999995;stroke-linecap:butt;stroke-linejoin:miter;stroke-miterlimit:4;stroke-opacity:1;stroke-dasharray:none"
     id="path96"
     inkscape:connector-curvature="0" /></g><g
   id="g98"
   transform="matrix(1,0,0,-1,0,841.88977)"><path
     d="m 317.809,507.875 c -8.079,0 -14.629,-6.551 -14.629,-14.633 0,-8.078 6.55,-14.629 14.629,-14.629 8.082,0 14.632,6.551 14.632,14.629 0,8.082 -6.55,14.633 -14.632,14.633"
     style="fill:#666666;fill-opacity:1;fill-rule:nonzero;stroke:#000000;stroke-width:1.67999995;stroke-linecap:butt;stroke-linejoin:miter;stroke-miterlimit:4;stroke-opacity:1;stroke-dasharray:none"
     id="path100"
     inkscape:connector-curvature="0" /></g><text
   transform="matrix(1,0,0,-1,292.62622,263.1669)"
   id="text102"><tspan
     style="font-size:22.39999962px;font-variant:normal;font-weight:normal;writing-mode:lr-tb;fill:#000000;fill-opacity:1;fill-rule:nonzero;stroke:none;font-family:Trebuchet MS;-inkscape-font-specification:TrebuchetMS"
     x="0 13.7312 25.939199 36.892799"
     y="0"
     sodipodi:role="line"
     id="tspan104">DevB</tspan></text>

<g
   id="g106"
   transform="matrix(1,0,0,-1,0,841.88977)"><path
     d="m 417.211,552.512 c 0,-26.184 11.266,-47.407 25.164,-47.407 13.898,0 25.168,21.223 25.168,47.407 l -50.332,0 z"
     style="fill:#666666;fill-opacity:1;fill-rule:nonzero;stroke:#000000;stroke-width:1.67999995;stroke-linecap:butt;stroke-linejoin:miter;stroke-miterlimit:4;stroke-opacity:1;stroke-dasharray:none"
     id="path108"
     inkscape:connector-curvature="0" /></g><g
   id="g110"
   transform="matrix(1,0,0,-1,0,841.88977)"><path
     d="m 442.375,507.875 c -8.078,0 -14.629,-6.551 -14.629,-14.633 0,-8.078 6.551,-14.629 14.629,-14.629 8.082,0 14.633,6.551 14.633,14.629 0,8.082 -6.551,14.633 -14.633,14.633"
     style="fill:#666666;fill-opacity:1;fill-rule:nonzero;stroke:#000000;stroke-width:1.67999995;stroke-linecap:butt;stroke-linejoin:miter;stroke-miterlimit:4;stroke-opacity:1;stroke-dasharray:none"
     id="path112"
     inkscape:connector-curvature="0" /></g><text
   transform="matrix(1,0,0,-1,416.83184,263.12862)"
   id="text114"><tspan
     style="font-size:22.39999962px;font-variant:normal;font-weight:normal;writing-mode:lr-tb;fill:#000000;fill-opacity:1;fill-rule:nonzero;stroke:none;font-family:Trebuchet MS;-inkscape-font-specification:TrebuchetMS"
     x="0 13.7312 25.939199 36.892799"
     y="0"
     sodipodi:role="line"
     id="tspan116">DevC</tspan><tspan
     style="font-size:22.39999962px;font-variant:normal;font-weight:normal;writing-mode:lr-tb;fill:#000000;fill-opacity:1;fill-rule:nonzero;stroke:none;font-family:Trebuchet MS;-inkscape-font-specification:TrebuchetMS"
     x="-136.86858 -123.47337 -111.26537 -99.034973 -90.164566 -81.473373 -69.713371"
     y="-289.50061"
     sodipodi:role="line"
     id="tspan118">Central</tspan><tspan
     style="font-size:22.39999962px;font-variant:normal;font-weight:normal;writing-mode:lr-tb;fill:#000000;fill-opacity:1;fill-rule:nonzero;stroke:none;font-family:Trebuchet MS;-inkscape-font-specification:TrebuchetMS"
     x="-124.37795 -112.25955 -100.07395 -87.597145"
     y="-261.50061"
     sodipodi:role="line"
     id="tspan120">Repo</tspan></text>

<g
   id="g122"
   transform="matrix(1,0,0,-1,0,841.88977)"><path
     d="m 148.898,539.105 c -9.261,0 -16.773,-2.785 -16.773,-6.222 0,-3.438 7.512,-6.223 16.773,-6.223 9.266,0 16.774,2.785 16.774,6.223 0,3.437 -7.508,6.222 -16.774,6.222"
     style="fill:#999999;fill-opacity:1;fill-rule:nonzero;stroke:#000000;stroke-width:1.01705205;stroke-linecap:butt;stroke-linejoin:miter;stroke-miterlimit:4;stroke-opacity:1;stroke-dasharray:none"
     id="path124"
     inkscape:connector-curvature="0" /></g><g
   id="g126"
   transform="matrix(1,0,0,-1,0,841.88977)"><path
     d="m 148.898,535.273 c -9.261,0 -16.773,-2.785 -16.773,-6.222 0,-3.434 7.512,-6.223 16.773,-6.223 9.266,0 16.774,2.789 16.774,6.223 0,3.437 -7.508,6.222 -16.774,6.222"
     style="fill:#333333;fill-opacity:1;fill-rule:nonzero;stroke:#000000;stroke-width:1.01705205;stroke-linecap:butt;stroke-linejoin:miter;stroke-miterlimit:4;stroke-opacity:1;stroke-dasharray:none"
     id="path128"
     inkscape:connector-curvature="0" /></g><g
   id="g130"
   transform="matrix(1,0,0,-1,0,841.88977)"><path
     d="m 148.898,531.012 c -9.261,0 -16.773,-2.785 -16.773,-6.223 0,-3.437 7.512,-6.223 16.773,-6.223 9.266,0 16.774,2.786 16.774,6.223 0,3.438 -7.508,6.223 -16.774,6.223"
     style="fill:#cccccc;fill-opacity:1;fill-rule:nonzero;stroke:#000000;stroke-width:1.01705205;stroke-linecap:butt;stroke-linejoin:miter;stroke-miterlimit:4;stroke-opacity:1;stroke-dasharray:none"
     id="path132"
     inkscape:connector-curvature="0" /></g><g
   id="g134"
   transform="matrix(1,0,0,-1,0,841.88977)"><path
     d="m 148.898,527.18 c -9.261,0 -16.773,-2.785 -16.773,-6.223 0,-3.437 7.512,-6.223 16.773,-6.223 9.266,0 16.774,2.786 16.774,6.223 0,3.438 -7.508,6.223 -16.774,6.223"
     style="fill:#999999;fill-opacity:1;fill-rule:nonzero;stroke:#000000;stroke-width:1.01705205;stroke-linecap:butt;stroke-linejoin:miter;stroke-miterlimit:4;stroke-opacity:1;stroke-dasharray:none"
     id="path136"
     inkscape:connector-curvature="0" /></g><g
   id="g138"
   transform="matrix(1,0,0,-1,0,841.88977)"><path
     d="m 148.898,523.156 c -9.261,0 -16.773,-2.789 -16.773,-6.222 0,-3.438 7.512,-6.223 16.773,-6.223 9.266,0 16.774,2.785 16.774,6.223 0,3.433 -7.508,6.222 -16.774,6.222"
     style="fill:#666666;fill-opacity:1;fill-rule:nonzero;stroke:#000000;stroke-width:1.01705205;stroke-linecap:butt;stroke-linejoin:miter;stroke-miterlimit:4;stroke-opacity:1;stroke-dasharray:none"
     id="path140"
     inkscape:connector-curvature="0" /></g><g
   id="g142"
   transform="matrix(1,0,0,-1,0,841.88977)"><path
     d="m 148.898,519.324 c -9.261,0 -16.773,-2.785 -16.773,-6.222 0,-3.438 7.512,-6.223 16.773,-6.223 9.266,0 16.774,2.785 16.774,6.223 0,3.437 -7.508,6.222 -16.774,6.222"
     style="fill:#999999;fill-opacity:1;fill-rule:nonzero;stroke:#000000;stroke-width:1.01705205;stroke-linecap:butt;stroke-linejoin:miter;stroke-miterlimit:4;stroke-opacity:1;stroke-dasharray:none"
     id="path144"
     inkscape:connector-curvature="0" /></g><g
   id="g146"
   transform="matrix(1,0,0,-1,0,841.88977)"><path
     d="m 148.898,515.059 c -9.261,0 -16.773,-2.786 -16.773,-6.223 0,-3.434 7.512,-6.223 16.773,-6.223 9.266,0 16.774,2.789 16.774,6.223 0,3.437 -7.508,6.223 -16.774,6.223"
     style="fill:#cccccc;fill-opacity:1;fill-rule:nonzero;stroke:#000000;stroke-width:1.01705205;stroke-linecap:butt;stroke-linejoin:miter;stroke-miterlimit:4;stroke-opacity:1;stroke-dasharray:none"
     id="path148"
     inkscape:connector-curvature="0" /></g><g
   id="g150"
   transform="matrix(1,0,0,-1,0,841.88977)"><path
     d="m 148.898,511.23 c -9.261,0 -16.773,-2.789 -16.773,-6.222 0,-3.438 7.512,-6.223 16.773,-6.223 9.266,0 16.774,2.785 16.774,6.223 0,3.433 -7.508,6.222 -16.774,6.222"
     style="fill:#666666;fill-opacity:1;fill-rule:nonzero;stroke:#000000;stroke-width:1.01705205;stroke-linecap:butt;stroke-linejoin:miter;stroke-miterlimit:4;stroke-opacity:1;stroke-dasharray:none"
     id="path152"
     inkscape:connector-curvature="0" /></g><g
   id="g154"
   transform="matrix(1,0,0,-1,0,841.88977)"><path
     d="m 273.219,539.105 c -9.266,0 -16.774,-2.785 -16.774,-6.222 0,-3.438 7.508,-6.223 16.774,-6.223 9.261,0 16.773,2.785 16.773,6.223 0,3.437 -7.512,6.222 -16.773,6.222"
     style="fill:#999999;fill-opacity:1;fill-rule:nonzero;stroke:#000000;stroke-width:1.01705205;stroke-linecap:butt;stroke-linejoin:miter;stroke-miterlimit:4;stroke-opacity:1;stroke-dasharray:none"
     id="path156"
     inkscape:connector-curvature="0" /></g><g
   id="g158"
   transform="matrix(1,0,0,-1,0,841.88977)"><path
     d="m 273.219,535.273 c -9.266,0 -16.774,-2.785 -16.774,-6.222 0,-3.434 7.508,-6.223 16.774,-6.223 9.261,0 16.773,2.789 16.773,6.223 0,3.437 -7.512,6.222 -16.773,6.222"
     style="fill:#333333;fill-opacity:1;fill-rule:nonzero;stroke:#000000;stroke-width:1.01705205;stroke-linecap:butt;stroke-linejoin:miter;stroke-miterlimit:4;stroke-opacity:1;stroke-dasharray:none"
     id="path160"
     inkscape:connector-curvature="0" /></g><g
   id="g162"
   transform="matrix(1,0,0,-1,0,841.88977)"><path
     d="m 273.219,531.012 c -9.266,0 -16.774,-2.785 -16.774,-6.223 0,-3.437 7.508,-6.223 16.774,-6.223 9.261,0 16.773,2.786 16.773,6.223 0,3.438 -7.512,6.223 -16.773,6.223"
     style="fill:#cccccc;fill-opacity:1;fill-rule:nonzero;stroke:#000000;stroke-width:1.01705205;stroke-linecap:butt;stroke-linejoin:miter;stroke-miterlimit:4;stroke-opacity:1;stroke-dasharray:none"
     id="path164"
     inkscape:connector-curvature="0" /></g><g
   id="g166"
   transform="matrix(1,0,0,-1,0,841.88977)"><path
     d="m 273.219,527.18 c -9.266,0 -16.774,-2.785 -16.774,-6.223 0,-3.437 7.508,-6.223 16.774,-6.223 9.261,0 16.773,2.786 16.773,6.223 0,3.438 -7.512,6.223 -16.773,6.223"
     style="fill:#999999;fill-opacity:1;fill-rule:nonzero;stroke:#000000;stroke-width:1.01705205;stroke-linecap:butt;stroke-linejoin:miter;stroke-miterlimit:4;stroke-opacity:1;stroke-dasharray:none"
     id="path168"
     inkscape:connector-curvature="0" /></g><g
   id="g170"
   transform="matrix(1,0,0,-1,0,841.88977)"><path
     d="m 273.219,523.156 c -9.266,0 -16.774,-2.789 -16.774,-6.222 0,-3.438 7.508,-6.223 16.774,-6.223 9.261,0 16.773,2.785 16.773,6.223 0,3.433 -7.512,6.222 -16.773,6.222"
     style="fill:#666666;fill-opacity:1;fill-rule:nonzero;stroke:#000000;stroke-width:1.01705205;stroke-linecap:butt;stroke-linejoin:miter;stroke-miterlimit:4;stroke-opacity:1;stroke-dasharray:none"
     id="path172"
     inkscape:connector-curvature="0" /></g><g
   id="g174"
   transform="matrix(1,0,0,-1,0,841.88977)"><path
     d="m 273.219,519.324 c -9.266,0 -16.774,-2.785 -16.774,-6.222 0,-3.438 7.508,-6.223 16.774,-6.223 9.261,0 16.773,2.785 16.773,6.223 0,3.437 -7.512,6.222 -16.773,6.222"
     style="fill:#999999;fill-opacity:1;fill-rule:nonzero;stroke:#000000;stroke-width:1.01705205;stroke-linecap:butt;stroke-linejoin:miter;stroke-miterlimit:4;stroke-opacity:1;stroke-dasharray:none"
     id="path176"
     inkscape:connector-curvature="0" /></g><g
   id="g178"
   transform="matrix(1,0,0,-1,0,841.88977)"><path
     d="m 273.219,515.059 c -9.266,0 -16.774,-2.786 -16.774,-6.223 0,-3.434 7.508,-6.223 16.774,-6.223 9.261,0 16.773,2.789 16.773,6.223 0,3.437 -7.512,6.223 -16.773,6.223"
     style="fill:#cccccc;fill-opacity:1;fill-rule:nonzero;stroke:#000000;stroke-width:1.01705205;stroke-linecap:butt;stroke-linejoin:miter;stroke-miterlimit:4;stroke-opacity:1;stroke-dasharray:none"
     id="path180"
     inkscape:connector-curvature="0" /></g><g
   id="g182"
   transform="matrix(1,0,0,-1,0,841.88977)"><path
     d="m 273.219,511.23 c -9.266,0 -16.774,-2.789 -16.774,-6.222 0,-3.438 7.508,-6.223 16.774,-6.223 9.261,0 16.773,2.785 16.773,6.223 0,3.433 -7.512,6.222 -16.773,6.222"
     style="fill:#666666;fill-opacity:1;fill-rule:nonzero;stroke:#000000;stroke-width:1.01705205;stroke-linecap:butt;stroke-linejoin:miter;stroke-miterlimit:4;stroke-opacity:1;stroke-dasharray:none"
     id="path184"
     inkscape:connector-curvature="0" /></g><g
   id="g186"
   transform="matrix(1,0,0,-1,0,841.88977)"><path
     d="m 399.016,539.105 c -9.262,0 -16.774,-2.785 -16.774,-6.222 0,-3.438 7.512,-6.223 16.774,-6.223 9.265,0 16.773,2.785 16.773,6.223 0,3.437 -7.508,6.222 -16.773,6.222"
     style="fill:#999999;fill-opacity:1;fill-rule:nonzero;stroke:#000000;stroke-width:1.01705205;stroke-linecap:butt;stroke-linejoin:miter;stroke-miterlimit:4;stroke-opacity:1;stroke-dasharray:none"
     id="path188"
     inkscape:connector-curvature="0" /></g><g
   id="g190"
   transform="matrix(1,0,0,-1,0,841.88977)"><path
     d="m 399.016,535.273 c -9.262,0 -16.774,-2.785 -16.774,-6.222 0,-3.434 7.512,-6.223 16.774,-6.223 9.265,0 16.773,2.789 16.773,6.223 0,3.437 -7.508,6.222 -16.773,6.222"
     style="fill:#333333;fill-opacity:1;fill-rule:nonzero;stroke:#000000;stroke-width:1.01705205;stroke-linecap:butt;stroke-linejoin:miter;stroke-miterlimit:4;stroke-opacity:1;stroke-dasharray:none"
     id="path192"
     inkscape:connector-curvature="0" /></g><g
   id="g194"
   transform="matrix(1,0,0,-1,0,841.88977)"><path
     d="m 399.016,531.012 c -9.262,0 -16.774,-2.785 -16.774,-6.223 0,-3.437 7.512,-6.223 16.774,-6.223 9.265,0 16.773,2.786 16.773,6.223 0,3.438 -7.508,6.223 -16.773,6.223"
     style="fill:#cccccc;fill-opacity:1;fill-rule:nonzero;stroke:#000000;stroke-width:1.01705205;stroke-linecap:butt;stroke-linejoin:miter;stroke-miterlimit:4;stroke-opacity:1;stroke-dasharray:none"
     id="path196"
     inkscape:connector-curvature="0" /></g><g
   id="g198"
   transform="matrix(1,0,0,-1,0,841.88977)"><path
     d="m 399.016,527.18 c -9.262,0 -16.774,-2.785 -16.774,-6.223 0,-3.437 7.512,-6.223 16.774,-6.223 9.265,0 16.773,2.786 16.773,6.223 0,3.438 -7.508,6.223 -16.773,6.223"
     style="fill:#999999;fill-opacity:1;fill-rule:nonzero;stroke:#000000;stroke-width:1.01705205;stroke-linecap:butt;stroke-linejoin:miter;stroke-miterlimit:4;stroke-opacity:1;stroke-dasharray:none"
     id="path200"
     inkscape:connector-curvature="0" /></g><g
   id="g202"
   transform="matrix(1,0,0,-1,0,841.88977)"><path
     d="m 399.016,523.156 c -9.262,0 -16.774,-2.789 -16.774,-6.222 0,-3.438 7.512,-6.223 16.774,-6.223 9.265,0 16.773,2.785 16.773,6.223 0,3.433 -7.508,6.222 -16.773,6.222"
     style="fill:#666666;fill-opacity:1;fill-rule:nonzero;stroke:#000000;stroke-width:1.01705205;stroke-linecap:butt;stroke-linejoin:miter;stroke-miterlimit:4;stroke-opacity:1;stroke-dasharray:none"
     id="path204"
     inkscape:connector-curvature="0" /></g><g
   id="g206"
   transform="matrix(1,0,0,-1,0,841.88977)"><path
     d="m 399.016,519.324 c -9.262,0 -16.774,-2.785 -16.774,-6.222 0,-3.438 7.512,-6.223 16.774,-6.223 9.265,0 16.773,2.785 16.773,6.223 0,3.437 -7.508,6.222 -16.773,6.222"
     style="fill:#999999;fill-opacity:1;fill-rule:nonzero;stroke:#000000;stroke-width:1.01705205;stroke-linecap:butt;stroke-linejoin:miter;stroke-miterlimit:4;stroke-opacity:1;stroke-dasharray:none"
     id="path208"
     inkscape:connector-curvature="0" /></g><g
   id="g210"
   transform="matrix(1,0,0,-1,0,841.88977)"><path
     d="m 399.016,515.059 c -9.262,0 -16.774,-2.786 -16.774,-6.223 0,-3.434 7.512,-6.223 16.774,-6.223 9.265,0 16.773,2.789 16.773,6.223 0,3.437 -7.508,6.223 -16.773,6.223"
     style="fill:#cccccc;fill-opacity:1;fill-rule:nonzero;stroke:#000000;stroke-width:1.01705205;stroke-linecap:butt;stroke-linejoin:miter;stroke-miterlimit:4;stroke-opacity:1;stroke-dasharray:none"
     id="path212"
     inkscape:connector-curvature="0" /></g><g
   id="g214"
   transform="matrix(1,0,0,-1,0,841.88977)"><path
     d="m 399.016,511.23 c -9.262,0 -16.774,-2.789 -16.774,-6.222 0,-3.438 7.512,-6.223 16.774,-6.223 9.265,0 16.773,2.785 16.773,6.223 0,3.433 -7.508,6.222 -16.773,6.222"
     style="fill:#666666;fill-opacity:1;fill-rule:nonzero;stroke:#000000;stroke-width:1.01705205;stroke-linecap:butt;stroke-linejoin:miter;stroke-miterlimit:4;stroke-opacity:1;stroke-dasharray:none"
     id="path216"
     inkscape:connector-curvature="0" /></g></g></g></svg>