<?xml version="1.0" encoding="UTF-8" standalone="no"?>
<!-- Created with Inkscape (http://www.inkscape.org/) -->

<svg
   xmlns:dc="http://purl.org/dc/elements/1.1/"
   xmlns:cc="http://creativecommons.org/ns#"
   xmlns:rdf="http://www.w3.org/1999/02/22-rdf-syntax-ns#"
   xmlns:svg="http://www.w3.org/2000/svg"
   xmlns="http://www.w3.org/2000/svg"
   xmlns:sodipodi="http://sodipodi.sourceforge.net/DTD/sodipodi-0.dtd"
   xmlns:inkscape="http://www.inkscape.org/namespaces/inkscape"
   id="svg2"
   version="1.1"
   inkscape:version="0.48.1 r9760"
   width="597.30292"
   height="613.71478"
   xml:space="preserve"
   sodipodi:docname="w2-d1.svg"><metadata
     id="metadata8"><rdf:RDF><cc:Work
         rdf:about=""><dc:format>image/svg+xml</dc:format><dc:type
           rdf:resource="http://purl.org/dc/dcmitype/StillImage" /><dc:title /></cc:Work></rdf:RDF></metadata><defs
     id="defs6" /><sodipodi:namedview
     pagecolor="#ffffff"
     bordercolor="#666666"
     borderopacity="1"
     objecttolerance="10"
     gridtolerance="10"
     guidetolerance="10"
     inkscape:pageopacity="0"
     inkscape:pageshadow="2"
     inkscape:window-width="640"
     inkscape:window-height="480"
     id="namedview4"
     showgrid="false"
     inkscape:zoom="0.30977928"
     inkscape:cx="295.69961"
     inkscape:cy="387.28597"
     inkscape:window-x="0"
     inkscape:window-y="24"
     inkscape:window-maximized="0"
     inkscape:current-layer="g10"
     units="cm"
     fit-margin-top="1"
     fit-margin-left="1"
     fit-margin-right="1"
     fit-margin-bottom="1" /><g
     id="g10"
     inkscape:groupmode="layer"
     inkscape:label="w2-d1"
     transform="matrix(1.25,0,0,-1.25,-76.347632,826.85741)"><g
       id="g12"><text
   transform="matrix(1,0,0,-1,265.8354,616.62385)"
   id="text14"><tspan
     style="font-size:22.39999962px;font-variant:normal;font-weight:normal;writing-mode:lr-tb;fill:#000000;fill-opacity:1;fill-rule:nonzero;stroke:none;font-family:Trebuchet MS;-inkscape-font-specification:TrebuchetMS"
     x="0 12.656 19.2416 31.4496 40.499199 49.526402 61.734402"
     y="0"
     sodipodi:role="line"
     id="tspan16">Blessed</tspan><tspan
     style="font-size:22.39999962px;font-variant:normal;font-weight:normal;writing-mode:lr-tb;fill:#000000;fill-opacity:1;fill-rule:nonzero;stroke:none;font-family:Trebuchet MS;-inkscape-font-specification:TrebuchetMS"
     x="12.731241 24.849642 37.03524 49.512043"
     y="28"
     sodipodi:role="line"
     id="tspan18">Repo</tspan></text>

<g
   id="g20"
   transform="matrix(1,0,0,-1,0,841.88977)"><path
     d="m 101.957,594.535 c 0,-26.183 11.266,-47.406 25.164,-47.406 13.902,0 25.168,21.223 25.168,47.406 l -50.332,0 z"
     style="fill:#4d4d4d;fill-opacity:1;fill-rule:nonzero;stroke:#000000;stroke-width:1.67999995;stroke-linecap:butt;stroke-linejoin:miter;stroke-miterlimit:4;stroke-opacity:1;stroke-dasharray:none"
     id="path22"
     inkscape:connector-curvature="0" /></g><g
   id="g24"
   transform="matrix(1,0,0,-1,0,841.88977)"><path
     d="m 127.121,549.898 c -8.078,0 -14.629,-6.55 -14.629,-14.628 0,-8.082 6.551,-14.633 14.629,-14.633 8.082,0 14.633,6.551 14.633,14.633 0,8.078 -6.551,14.628 -14.633,14.628"
     style="fill:#4d4d4d;fill-opacity:1;fill-rule:nonzero;stroke:#000000;stroke-width:1.67999995;stroke-linecap:butt;stroke-linejoin:miter;stroke-miterlimit:4;stroke-opacity:1;stroke-dasharray:none"
     id="path26"
     inkscape:connector-curvature="0" /></g><text
   transform="matrix(1,0,0,-1,89.205812,221.10472)"
   id="text28"><tspan
     style="font-size:22.39999962px;font-variant:normal;font-weight:normal;writing-mode:lr-tb;fill:#000000;fill-opacity:1;fill-rule:nonzero;stroke:none;font-family:Trebuchet MS;-inkscape-font-specification:TrebuchetMS"
     x="0 15.8816 27.6416 36.332802 45.203201 57.433601"
     y="0"
     sodipodi:role="line"
     id="tspan30">Martha</tspan></text>

<g
   id="g32"
   transform="matrix(1,0,0,-1,0,841.88977)"><path
     d="m 459.402,403.48 c 0,-26.179 11.27,-47.406 25.168,-47.406 13.899,0 25.164,21.227 25.164,47.406 l -50.332,0 z"
     style="fill:#666666;fill-opacity:1;fill-rule:nonzero;stroke:#000000;stroke-width:1.67999995;stroke-linecap:butt;stroke-linejoin:miter;stroke-miterlimit:4;stroke-opacity:1;stroke-dasharray:none"
     id="path34"
     inkscape:connector-curvature="0" /></g><g
   id="g36"
   transform="matrix(1,0,0,-1,0,841.88977)"><path
     d="m 484.57,358.848 c -8.082,0 -14.632,-6.551 -14.632,-14.633 0,-8.082 6.55,-14.633 14.632,-14.633 8.078,0 14.629,6.551 14.629,14.633 0,8.082 -6.551,14.633 -14.629,14.633"
     style="fill:#666666;fill-opacity:1;fill-rule:nonzero;stroke:#000000;stroke-width:1.67999995;stroke-linecap:butt;stroke-linejoin:miter;stroke-miterlimit:4;stroke-opacity:1;stroke-dasharray:none"
     id="path38"
     inkscape:connector-curvature="0" /></g><text
   transform="matrix(1,0,0,-1,458.39925,412.15776)"
   id="text40"><tspan
     style="font-size:22.39999962px;font-variant:normal;font-weight:normal;writing-mode:lr-tb;fill:#000000;fill-opacity:1;fill-rule:nonzero;stroke:none;font-family:Trebuchet MS;-inkscape-font-specification:TrebuchetMS"
     x="0 15.8816 22.2656 33.555199"
     y="0"
     sodipodi:role="line"
     id="tspan42">Mike</tspan></text>

<g
   id="g44"
   transform="matrix(1,0,0,-1,0,841.88977)"><path
     d="m 99.73,347.113 c 0,-26.183 11.27,-47.406 25.168,-47.406 13.899,0 25.164,21.223 25.164,47.406 l -50.332,0 z"
     style="fill:#4d4d4d;fill-opacity:1;fill-rule:nonzero;stroke:#000000;stroke-width:1.67999995;stroke-linecap:butt;stroke-linejoin:miter;stroke-miterlimit:4;stroke-opacity:1;stroke-dasharray:none"
     id="path46"
     inkscape:connector-curvature="0" /></g><g
   id="g48"
   transform="matrix(1,0,0,-1,0,841.88977)"><path
     d="m 124.898,302.477 c -8.082,0 -14.632,-6.551 -14.632,-14.629 0,-8.082 6.55,-14.633 14.632,-14.633 8.079,0 14.629,6.551 14.629,14.633 0,8.078 -6.55,14.629 -14.629,14.629"
     style="fill:#4d4d4d;fill-opacity:1;fill-rule:nonzero;stroke:#000000;stroke-width:1.67999995;stroke-linecap:butt;stroke-linejoin:miter;stroke-miterlimit:4;stroke-opacity:1;stroke-dasharray:none"
     id="path50"
     inkscape:connector-curvature="0" /></g><text
   transform="matrix(1,0,0,-1,103.29875,468.52608)"
   id="text52"><tspan
     style="font-size:22.39999962px;font-variant:normal;font-weight:normal;writing-mode:lr-tb;fill:#000000;fill-opacity:1;fill-rule:nonzero;stroke:none;font-family:Trebuchet MS;-inkscape-font-specification:TrebuchetMS"
     x="0 12.1184 24.1248"
     y="0"
     sodipodi:role="line"
     id="tspan54">Rob</tspan></text>

<g
   id="g56"
   transform="matrix(1,0,0,-1,0,841.88977)"><path
     d="m 100.461,468.66 c 0,-26.18 11.266,-47.402 25.164,-47.402 13.898,0 25.168,21.222 25.168,47.402 l -50.332,0 z"
     style="fill:#4d4d4d;fill-opacity:1;fill-rule:nonzero;stroke:#000000;stroke-width:1.67999995;stroke-linecap:butt;stroke-linejoin:miter;stroke-miterlimit:4;stroke-opacity:1;stroke-dasharray:none"
     id="path58"
     inkscape:connector-curvature="0" /></g><g
   id="g60"
   transform="matrix(1,0,0,-1,0,841.88977)"><path
     d="m 125.625,424.027 c -8.082,0 -14.633,-6.55 -14.633,-14.632 0,-8.079 6.551,-14.629 14.633,-14.629 8.082,0 14.633,6.55 14.633,14.629 0,8.082 -6.551,14.632 -14.633,14.632"
     style="fill:#4d4d4d;fill-opacity:1;fill-rule:nonzero;stroke:#000000;stroke-width:1.67999995;stroke-linecap:butt;stroke-linejoin:miter;stroke-miterlimit:4;stroke-opacity:1;stroke-dasharray:none"
     id="path62"
     inkscape:connector-curvature="0" /></g><text
   transform="matrix(1,0,0,-1,92.323709,346.97701)"
   id="text64"><tspan
     style="font-size:22.39999962px;font-variant:normal;font-weight:normal;writing-mode:lr-tb;fill:#000000;fill-opacity:1;fill-rule:nonzero;stroke:none;font-family:Trebuchet MS;-inkscape-font-specification:TrebuchetMS"
     x="0 10.752 17.136 35.728001 47.734402"
     y="0"
     sodipodi:role="line"
     id="tspan66">Simon</tspan></text>

<g
   id="g68"
   transform="matrix(1,0,0,-1,0,841.88977)"><path
     d="m 346.625,398.285 c -0.066,-23.558 -6.82,-37.023 -26.426,-59.898"
     style="fill:none;stroke:#000000;stroke-width:2.4000001;stroke-linecap:butt;stroke-linejoin:miter;stroke-miterlimit:4;stroke-opacity:1;stroke-dasharray:none"
     id="path70"
     inkscape:connector-curvature="0" /></g><g
   id="g72"
   transform="matrix(0.857071,-1,-1,-0.857071,0,841.88977)"><path
     d="m 360.588,-17.399 3.643,-3.644 -12.755,3.647 12.756,3.643 -3.644,-3.646 z"
     style="fill:#000000;fill-opacity:1;fill-rule:evenodd;stroke:#000000;stroke-width:0.91114002;stroke-linecap:butt;stroke-linejoin:miter;stroke-miterlimit:4;stroke-opacity:1;stroke-dasharray:none"
     id="path74"
     inkscape:connector-curvature="0" /></g><g
   id="g76"
   transform="matrix(1,0,0,-1,0,841.88977)"><path
     d="m 281.527,612.184 c 0,-26.18 11.266,-47.407 25.168,-47.407 13.899,0 25.164,21.227 25.164,47.407 l -50.332,0 z"
     style="fill:#4d4d4d;fill-opacity:1;fill-rule:nonzero;stroke:#000000;stroke-width:1.67999995;stroke-linecap:butt;stroke-linejoin:miter;stroke-miterlimit:4;stroke-opacity:1;stroke-dasharray:none"
     id="path78"
     inkscape:connector-curvature="0" /></g><g
   id="g80"
   transform="matrix(1,0,0,-1,0,841.88977)"><path
     d="m 306.695,567.551 c -8.082,0 -14.633,-6.551 -14.633,-14.633 0,-8.082 6.551,-14.633 14.633,-14.633 8.078,0 14.629,6.551 14.629,14.633 0,8.082 -6.551,14.633 -14.629,14.633"
     style="fill:#4d4d4d;fill-opacity:1;fill-rule:nonzero;stroke:#000000;stroke-width:1.67999995;stroke-linecap:butt;stroke-linejoin:miter;stroke-miterlimit:4;stroke-opacity:1;stroke-dasharray:none"
     id="path82"
     inkscape:connector-curvature="0" /></g><text
   transform="matrix(1,0,0,-1,267.33252,203.45433)"
   id="text84"><tspan
     style="font-size:22.39999962px;font-variant:normal;font-weight:normal;writing-mode:lr-tb;fill:#000000;fill-opacity:1;fill-rule:nonzero;stroke:none;font-family:Trebuchet MS;-inkscape-font-specification:TrebuchetMS"
     x="0 11.984 24.214399 35.436798 47.644798 59.875198"
     y="0"
     sodipodi:role="line"
     id="tspan86">Eugene</tspan></text>

<g
   id="g88"
   transform="matrix(1,0,0,-1,0,841.88977)"><path
     d="m 458.652,514.664 c 0,-26.18 11.266,-47.406 25.168,-47.406 13.899,0 25.164,21.226 25.164,47.406 l -50.332,0 z"
     style="fill:#4d4d4d;fill-opacity:1;fill-rule:nonzero;stroke:#000000;stroke-width:1.67999995;stroke-linecap:butt;stroke-linejoin:miter;stroke-miterlimit:4;stroke-opacity:1;stroke-dasharray:none"
     id="path90"
     inkscape:connector-curvature="0" /></g><g
   id="g92"
   transform="matrix(1,0,0,-1,0,841.88977)"><path
     d="m 483.82,470.031 c -8.082,0 -14.632,-6.551 -14.632,-14.633 0,-8.082 6.55,-14.632 14.632,-14.632 8.078,0 14.629,6.55 14.629,14.632 0,8.082 -6.551,14.633 -14.629,14.633"
     style="fill:#4d4d4d;fill-opacity:1;fill-rule:nonzero;stroke:#000000;stroke-width:1.67999995;stroke-linecap:butt;stroke-linejoin:miter;stroke-miterlimit:4;stroke-opacity:1;stroke-dasharray:none"
     id="path94"
     inkscape:connector-curvature="0" /></g><text
   transform="matrix(1,0,0,-1,458.10768,300.97345)"
   id="text96"><tspan
     style="font-size:22.39999962px;font-variant:normal;font-weight:normal;writing-mode:lr-tb;fill:#000000;fill-opacity:1;fill-rule:nonzero;stroke:none;font-family:Trebuchet MS;-inkscape-font-specification:TrebuchetMS"
     x="0 10.6624 22.4224 33.510399"
     y="0"
     sodipodi:role="line"
     id="tspan98">Jack</tspan></text>

<g
   id="g100"
   transform="matrix(1,0,0,-1,0,841.88977)"><path
     d="m 260.305,397.59 c 0.066,-23.563 6.82,-37.028 26.422,-59.902"
     style="fill:none;stroke:#000000;stroke-width:2.4000001;stroke-linecap:butt;stroke-linejoin:miter;stroke-miterlimit:4;stroke-opacity:1;stroke-dasharray:none"
     id="path102"
     inkscape:connector-curvature="0" /></g><g
   id="g104"
   transform="matrix(-0.857071,-1,-1,0.857071,0,841.88977)"><path
     d="m 60.294,-332.157 3.646,-3.644 -12.756,3.643 12.757,3.645 -3.647,-3.644 z"
     style="fill:#000000;fill-opacity:1;fill-rule:evenodd;stroke:#000000;stroke-width:0.91114002;stroke-linecap:butt;stroke-linejoin:miter;stroke-miterlimit:4;stroke-opacity:1;stroke-dasharray:none"
     id="path106"
     inkscape:connector-curvature="0" /></g><g
   id="g108"
   transform="matrix(1,0,0,-1,0,841.88977)"><path
     d="m 302.953,339.152 c -15.305,0 -27.707,-4.601 -27.707,-10.277 0,-5.676 12.402,-10.277 27.707,-10.277 15.301,0 27.707,4.601 27.707,10.277 0,5.676 -12.406,10.277 -27.707,10.277"
     style="fill:#999999;fill-opacity:1;fill-rule:nonzero;stroke:#000000;stroke-width:1.67999995;stroke-linecap:butt;stroke-linejoin:miter;stroke-miterlimit:4;stroke-opacity:1;stroke-dasharray:none"
     id="path110"
     inkscape:connector-curvature="0" /></g><g
   id="g112"
   transform="matrix(1,0,0,-1,0,841.88977)"><path
     d="m 302.953,332.824 c -15.305,0 -27.707,-4.601 -27.707,-10.277 0,-5.676 12.402,-10.277 27.707,-10.277 15.301,0 27.707,4.601 27.707,10.277 0,5.676 -12.406,10.277 -27.707,10.277"
     style="fill:#333333;fill-opacity:1;fill-rule:nonzero;stroke:#000000;stroke-width:1.67999995;stroke-linecap:butt;stroke-linejoin:miter;stroke-miterlimit:4;stroke-opacity:1;stroke-dasharray:none"
     id="path114"
     inkscape:connector-curvature="0" /></g><g
   id="g116"
   transform="matrix(1,0,0,-1,0,841.88977)"><path
     d="m 302.953,325.781 c -15.305,0 -27.707,-4.601 -27.707,-10.277 0,-5.676 12.402,-10.277 27.707,-10.277 15.301,0 27.707,4.601 27.707,10.277 0,5.676 -12.406,10.277 -27.707,10.277"
     style="fill:#cccccc;fill-opacity:1;fill-rule:nonzero;stroke:#000000;stroke-width:1.67999995;stroke-linecap:butt;stroke-linejoin:miter;stroke-miterlimit:4;stroke-opacity:1;stroke-dasharray:none"
     id="path118"
     inkscape:connector-curvature="0" /></g><g
   id="g120"
   transform="matrix(1,0,0,-1,0,841.88977)"><path
     d="m 302.953,319.453 c -15.305,0 -27.707,-4.601 -27.707,-10.277 0,-5.676 12.402,-10.278 27.707,-10.278 15.301,0 27.707,4.602 27.707,10.278 0,5.676 -12.406,10.277 -27.707,10.277"
     style="fill:#999999;fill-opacity:1;fill-rule:nonzero;stroke:#000000;stroke-width:1.67999995;stroke-linecap:butt;stroke-linejoin:miter;stroke-miterlimit:4;stroke-opacity:1;stroke-dasharray:none"
     id="path122"
     inkscape:connector-curvature="0" /></g><g
   id="g124"
   transform="matrix(1,0,0,-1,0,841.88977)"><path
     d="m 302.953,312.805 c -15.305,0 -27.707,-4.602 -27.707,-10.278 0,-5.675 12.402,-10.277 27.707,-10.277 15.301,0 27.707,4.602 27.707,10.277 0,5.676 -12.406,10.278 -27.707,10.278"
     style="fill:#666666;fill-opacity:1;fill-rule:nonzero;stroke:#000000;stroke-width:1.67999995;stroke-linecap:butt;stroke-linejoin:miter;stroke-miterlimit:4;stroke-opacity:1;stroke-dasharray:none"
     id="path126"
     inkscape:connector-curvature="0" /></g><g
   id="g128"
   transform="matrix(1,0,0,-1,0,841.88977)"><path
     d="m 302.953,306.477 c -15.305,0 -27.707,-4.602 -27.707,-10.278 0,-5.676 12.402,-10.281 27.707,-10.281 15.301,0 27.707,4.605 27.707,10.281 0,5.676 -12.406,10.278 -27.707,10.278"
     style="fill:#999999;fill-opacity:1;fill-rule:nonzero;stroke:#000000;stroke-width:1.67999995;stroke-linecap:butt;stroke-linejoin:miter;stroke-miterlimit:4;stroke-opacity:1;stroke-dasharray:none"
     id="path130"
     inkscape:connector-curvature="0" /></g><g
   id="g132"
   transform="matrix(1,0,0,-1,0,841.88977)"><path
     d="m 302.953,299.434 c -15.305,0 -27.707,-4.602 -27.707,-10.278 0,-5.676 12.402,-10.277 27.707,-10.277 15.301,0 27.707,4.601 27.707,10.277 0,5.676 -12.406,10.278 -27.707,10.278"
     style="fill:#cccccc;fill-opacity:1;fill-rule:nonzero;stroke:#000000;stroke-width:1.67999995;stroke-linecap:butt;stroke-linejoin:miter;stroke-miterlimit:4;stroke-opacity:1;stroke-dasharray:none"
     id="path134"
     inkscape:connector-curvature="0" /></g><g
   id="g136"
   transform="matrix(1,0,0,-1,0,841.88977)"><path
     d="m 302.953,293.105 c -15.305,0 -27.707,-4.601 -27.707,-10.277 0,-5.676 12.402,-10.277 27.707,-10.277 15.301,0 27.707,4.601 27.707,10.277 0,5.676 -12.406,10.277 -27.707,10.277"
     style="fill:#666666;fill-opacity:1;fill-rule:nonzero;stroke:#000000;stroke-width:1.67999995;stroke-linecap:butt;stroke-linejoin:miter;stroke-miterlimit:4;stroke-opacity:1;stroke-dasharray:none"
     id="path138"
     inkscape:connector-curvature="0" /></g><g
   id="g140"
   transform="matrix(1,0,0,-1,0,841.88977)"><path
     d="m 144.887,320.895 c 47.062,10.617 71.972,79.398 96.918,113.132"
     style="fill:none;stroke:#000000;stroke-width:2.4000001;stroke-linecap:butt;stroke-linejoin:miter;stroke-miterlimit:4;stroke-opacity:1;stroke-dasharray:none"
     id="path142"
     inkscape:connector-curvature="0" /></g><g
   id="g144"
   transform="matrix(-0.739379,1,1,0.739379,0,841.88977)"><path
     d="m -388.493,-51.146 3.859,-3.861 -13.507,3.861 13.507,3.858 -3.859,-3.858 z"
     style="fill:#000000;fill-opacity:1;fill-rule:evenodd;stroke:#000000;stroke-width:0.96489698;stroke-linecap:butt;stroke-linejoin:miter;stroke-miterlimit:4;stroke-opacity:1;stroke-dasharray:none"
     id="path146"
     inkscape:connector-curvature="0" /></g><g
   id="g148"
   transform="matrix(1,0,0,-1,0,841.88977)"><path
     d="m 144.953,439.246 c 36.383,-6.473 53.817,-9.254 92.649,9.527"
     style="fill:none;stroke:#000000;stroke-width:2.4000001;stroke-linecap:butt;stroke-linejoin:miter;stroke-miterlimit:4;stroke-opacity:1;stroke-dasharray:none"
     id="path150"
     inkscape:connector-curvature="0" /></g><g
   id="g152"
   transform="matrix(-1,0.483735,0.483735,1,0,841.88977)"><path
     d="m -359.824,-270.534 4.32,-4.32 -15.125,4.32 15.125,4.32 -4.32,-4.32 z"
     style="fill:#000000;fill-opacity:1;fill-rule:evenodd;stroke:#000000;stroke-width:1.08024895;stroke-linecap:butt;stroke-linejoin:miter;stroke-miterlimit:4;stroke-opacity:1;stroke-dasharray:none"
     id="path154"
     inkscape:connector-curvature="0" /></g><g
   id="g156"
   transform="matrix(1,0,0,-1,0,841.88977)"><path
     d="m 147.789,564.43 c 10.75,-21.426 10.027,-75.481 86.238,-98.352"
     style="fill:none;stroke:#000000;stroke-width:2.4000001;stroke-linecap:butt;stroke-linejoin:miter;stroke-miterlimit:4;stroke-opacity:1;stroke-dasharray:none"
     id="path158"
     inkscape:connector-curvature="0" /></g><g
   id="g160"
   transform="matrix(-1,-0.300117,-0.300117,1,0,841.88977)"><path
     d="m -77.175,-491.998 4.594,-4.597 -16.09,4.597 16.093,4.595 -4.597,-4.595 z"
     style="fill:#000000;fill-opacity:1;fill-rule:evenodd;stroke:#000000;stroke-width:1.14935505;stroke-linecap:butt;stroke-linejoin:miter;stroke-miterlimit:4;stroke-opacity:1;stroke-dasharray:none"
     id="path162"
     inkscape:connector-curvature="0" /></g><g
   id="g164"
   transform="matrix(1,0,0,-1,0,841.88977)"><path
     d="m 463.781,375.16 c -31.976,5.278 -65.808,9.969 -96.406,66.137"
     style="fill:none;stroke:#000000;stroke-width:2.4000001;stroke-linecap:butt;stroke-linejoin:miter;stroke-miterlimit:4;stroke-opacity:1;stroke-dasharray:none"
     id="path166"
     inkscape:connector-curvature="0" /></g><g
   id="g168"
   transform="matrix(0.544756,1,1,-0.544756,0,841.88977)"><path
     d="m -177.548,468.685 4.216,-4.214 -14.754,4.216 14.753,4.214 -4.215,-4.216 z"
     style="fill:#000000;fill-opacity:1;fill-rule:evenodd;stroke:#000000;stroke-width:1.05378401;stroke-linecap:butt;stroke-linejoin:miter;stroke-miterlimit:4;stroke-opacity:1;stroke-dasharray:none"
     id="path170"
     inkscape:connector-curvature="0" /></g><g
   id="g172"
   transform="matrix(1,0,0,-1,0,841.88977)"><path
     d="m 464.473,484.375 c -31.977,-5.277 -46.586,-5.699 -94.274,-27.687"
     style="fill:none;stroke:#000000;stroke-width:2.4000001;stroke-linecap:butt;stroke-linejoin:miter;stroke-miterlimit:4;stroke-opacity:1;stroke-dasharray:none"
     id="path174"
     inkscape:connector-curvature="0" /></g><g
   id="g176"
   transform="matrix(1,-0.461081,-0.461081,-1,0,841.88977)"><path
     d="m 487.666,235.854 4.358,-4.357 -15.256,4.358 15.256,4.36 -4.358,-4.361 z"
     style="fill:#000000;fill-opacity:1;fill-rule:evenodd;stroke:#000000;stroke-width:1.08974099;stroke-linecap:butt;stroke-linejoin:miter;stroke-miterlimit:4;stroke-opacity:1;stroke-dasharray:none"
     id="path178"
     inkscape:connector-curvature="0" /></g><g
   id="g180"
   transform="matrix(-1,0,0,-1,0,841.88977)"><path
     d="m -371.73,470.887 c 0,-26.184 11.265,-47.407 25.164,-47.407 13.898,0 25.168,21.223 25.168,47.407 l -50.332,0 z"
     style="fill:#e6e6e6;fill-opacity:1;fill-rule:nonzero;stroke:#000000;stroke-width:1.67999995;stroke-linecap:butt;stroke-linejoin:miter;stroke-miterlimit:4;stroke-opacity:1;stroke-dasharray:none"
     id="path182"
     inkscape:connector-curvature="0" /></g><g
   id="g184"
   transform="matrix(-1,0,0,-1,0,841.88977)"><path
     d="m -346.566,426.25 c -8.079,0 -14.629,-6.551 -14.629,-14.633 0,-8.078 6.55,-14.629 14.629,-14.629 8.082,0 14.632,6.551 14.632,14.629 0,8.082 -6.55,14.633 -14.632,14.633"
     style="fill:#e6e6e6;fill-opacity:1;fill-rule:nonzero;stroke:#000000;stroke-width:1.67999995;stroke-linecap:butt;stroke-linejoin:miter;stroke-miterlimit:4;stroke-opacity:1;stroke-dasharray:none"
     id="path186"
     inkscape:connector-curvature="0" /></g><text
   transform="matrix(1,0,0,-1,319.04951,344.75376)"
   id="text188"><tspan
     style="font-size:22.39999962px;font-variant:normal;font-weight:normal;writing-mode:lr-tb;fill:#000000;fill-opacity:1;fill-rule:nonzero;stroke:none;font-family:Trebuchet MS;-inkscape-font-specification:TrebuchetMS"
     x="0 12.88 19.465599 31.225599 43.456001"
     y="0"
     sodipodi:role="line"
     id="tspan190">Klaus</tspan></text>

<g
   id="g192"
   transform="matrix(1,0,0,-1,0,841.88977)"><path
     d="m 306.238,537.516 c 4.336,-18.223 13.227,-49.848 -22.711,-83.399"
     style="fill:none;stroke:#000000;stroke-width:2.4000001;stroke-linecap:butt;stroke-linejoin:miter;stroke-miterlimit:4;stroke-opacity:1;stroke-dasharray:none"
     id="path194"
     inkscape:connector-curvature="0" /></g><g
   id="g196"
   transform="matrix(1,-0.933667,-0.933667,-1,0,841.88977)"><path
     d="m 385.021,101.186 3.506,-3.507 -12.279,3.508 12.279,3.507 -3.506,-3.508 z"
     style="fill:#000000;fill-opacity:1;fill-rule:evenodd;stroke:#000000;stroke-width:0.87712097;stroke-linecap:butt;stroke-linejoin:miter;stroke-miterlimit:4;stroke-opacity:1;stroke-dasharray:none"
     id="path198"
     inkscape:connector-curvature="0" /></g><g
   id="g200"
   transform="matrix(1,0,0,-1,0,841.88977)"><path
     d="m 236.055,471.75 c 0,-26.18 11.265,-47.402 25.164,-47.402 13.898,0 25.168,21.222 25.168,47.402 l -50.332,0 z"
     style="fill:#e6e6e6;fill-opacity:1;fill-rule:nonzero;stroke:#000000;stroke-width:1.67999995;stroke-linecap:butt;stroke-linejoin:miter;stroke-miterlimit:4;stroke-opacity:1;stroke-dasharray:none"
     id="path202"
     inkscape:connector-curvature="0" /></g><g
   id="g204"
   transform="matrix(1,0,0,-1,0,841.88977)"><path
     d="m 261.219,427.117 c -8.078,0 -14.629,-6.551 -14.629,-14.633 0,-8.078 6.551,-14.629 14.629,-14.629 8.082,0 14.633,6.551 14.633,14.629 0,8.082 -6.551,14.633 -14.633,14.633"
     style="fill:#e6e6e6;fill-opacity:1;fill-rule:nonzero;stroke:#000000;stroke-width:1.67999995;stroke-linecap:butt;stroke-linejoin:miter;stroke-miterlimit:4;stroke-opacity:1;stroke-dasharray:none"
     id="path206"
     inkscape:connector-curvature="0" /></g><text
   transform="matrix(1,0,0,-1,234.32722,343.88681)"
   id="text208"><tspan
     style="font-size:22.39999962px;font-variant:normal;font-weight:normal;writing-mode:lr-tb;fill:#000000;fill-opacity:1;fill-rule:nonzero;stroke:none;font-family:Trebuchet MS;-inkscape-font-specification:TrebuchetMS"
     x="0 10.6624 22.6688 34.8992"
     y="0"
     sodipodi:role="line"
     id="tspan210">John</tspan></text>

</g></g></svg>