<?xml version="1.0" encoding="UTF-8" standalone="no"?>
<!-- Created with Inkscape (http://www.inkscape.org/) -->

<svg
   xmlns:dc="http://purl.org/dc/elements/1.1/"
   xmlns:cc="http://creativecommons.org/ns#"
   xmlns:rdf="http://www.w3.org/1999/02/22-rdf-syntax-ns#"
   xmlns:svg="http://www.w3.org/2000/svg"
   xmlns="http://www.w3.org/2000/svg"
   xmlns:sodipodi="http://sodipodi.sourceforge.net/DTD/sodipodi-0.dtd"
   xmlns:inkscape="http://www.inkscape.org/namespaces/inkscape"
   id="svg2"
   version="1.1"
   inkscape:version="0.48.1 r9760"
   width="732.66455"
   height="972.84662"
   xml:space="preserve"
   sodipodi:docname="w7-d1.svg"><metadata
     id="metadata8"><rdf:RDF><cc:Work
         rdf:about=""><dc:format>image/svg+xml</dc:format><dc:type
           rdf:resource="http://purl.org/dc/dcmitype/StillImage" /><dc:title /></cc:Work></rdf:RDF></metadata><defs
     id="defs6"><marker
       inkscape:stockid="Arrow1Mstart"
       orient="auto"
       refY="0"
       refX="0"
       id="Arrow1Mstart"
       style="overflow:visible"><path
         id="path4287"
         d="M 0,0 5,-5 -12.5,0 5,5 0,0 z"
         style="fill-rule:evenodd;stroke:#000000;stroke-width:1pt;marker-start:none"
         transform="matrix(0.4,0,0,0.4,4,0)"
         inkscape:connector-curvature="0" /></marker><marker
       inkscape:stockid="Arrow1Mend"
       orient="auto"
       refY="0"
       refX="0"
       id="Arrow1Mend"
       style="overflow:visible"><path
         id="path4290"
         d="M 0,0 5,-5 -12.5,0 5,5 0,0 z"
         style="fill-rule:evenodd;stroke:#000000;stroke-width:1pt;marker-start:none"
         transform="matrix(-0.4,0,0,-0.4,-4,0)"
         inkscape:connector-curvature="0" /></marker><marker
       inkscape:stockid="Arrow2Lend"
       orient="auto"
       refY="0"
       refX="0"
       id="Arrow2Lend"
       style="overflow:visible"><path
         id="path4302"
         style="font-size:12px;fill-rule:evenodd;stroke-width:0.625;stroke-linejoin:round"
         d="M 8.7185878,4.0337352 -2.2072895,0.01601326 8.7185884,-4.0017078 c -1.7454984,2.3720609 -1.7354408,5.6174519 -6e-7,8.035443 z"
         transform="matrix(-1.1,0,0,-1.1,-1.1,0)"
         inkscape:connector-curvature="0" /></marker></defs><sodipodi:namedview
     pagecolor="#ffffff"
     bordercolor="#666666"
     borderopacity="1"
     objecttolerance="10"
     gridtolerance="10"
     guidetolerance="10"
     inkscape:pageopacity="0"
     inkscape:pageshadow="2"
     inkscape:window-width="1366"
     inkscape:window-height="693"
     id="namedview4"
     showgrid="false"
     inkscape:zoom="0.30977928"
     inkscape:cx="305.27901"
     inkscape:cy="467.34137"
     inkscape:window-x="0"
     inkscape:window-y="24"
     inkscape:window-maximized="1"
     inkscape:current-layer="g10"
     units="cm"
     fit-margin-top="1"
     fit-margin-left="1"
     fit-margin-right="1"
     fit-margin-bottom="1" /><g
     id="g10"
     inkscape:groupmode="layer"
     inkscape:label="w2-d1"
     transform="matrix(1.25,0,0,-1.25,7.0496633,1070.5792)"><text
   id="text14"
   transform="scale(1,-1)"
   x="272.2916"
   y="-811.60132"><tspan
     id="tspan16"
     sodipodi:role="line"
     y="-811.60132"
     x="272.2916 284.9476 291.5332 303.74121 312.7908 321.81802 334.026"
     style="font-size:22.39999962px;font-variant:normal;font-weight:normal;writing-mode:lr-tb;fill:#000000;fill-opacity:1;fill-rule:nonzero;stroke:none;font-family:Trebuchet MS;-inkscape-font-specification:TrebuchetMS">Blessed</tspan><tspan
     id="tspan18"
     sodipodi:role="line"
     y="-783.60132"
     x="285.02286 297.14124 309.32684 321.80365"
     style="font-size:22.39999962px;font-variant:normal;font-weight:normal;writing-mode:lr-tb;fill:#000000;fill-opacity:1;fill-rule:nonzero;stroke:none;font-family:Trebuchet MS;-inkscape-font-specification:TrebuchetMS">Repo</tspan></text>

<path
   style="fill:none;stroke:#000000;stroke-width:3;stroke-linecap:butt;stroke-linejoin:miter;stroke-miterlimit:4;stroke-opacity:1;stroke-dasharray:none;marker-end:url(#Arrow1Mend)"
   d="m 59.71994,761.83274 c 0,0 16.140524,-101.6853 104.91341,-127.51014"
   id="path5203"
   inkscape:connector-curvature="0"
   transform="matrix(0.8,0,0,-0.8,0,841.88976)"
   sodipodi:nodetypes="cc" /><path
   style="fill:none;stroke:#000000;stroke-width:3;stroke-linecap:butt;stroke-linejoin:miter;stroke-miterlimit:4;stroke-opacity:1;stroke-dasharray:none;marker-end:url(#Arrow1Mend)"
   d="m 175.93171,792.49974 c 0,0 -12.91241,-71.01831 8.07027,-111.36962"
   id="path5205"
   inkscape:connector-curvature="0"
   transform="matrix(0.8,0,0,-0.8,0,841.88976)" /><path
   style="fill:none;stroke:#000000;stroke-width:3;stroke-linecap:butt;stroke-linejoin:miter;stroke-miterlimit:4;stroke-opacity:1;stroke-dasharray:none;marker-end:url(#Arrow1Mend)"
   d="m 282.45917,748.92033 c 0,0 -17.75457,-58.10589 -45.19346,-93.61504"
   id="path5207"
   inkscape:connector-curvature="0"
   transform="matrix(0.8,0,0,-0.8,0,841.88976)"
   sodipodi:nodetypes="cc" /><path
   style="fill:none;stroke:#000000;stroke-width:3;stroke-linecap:butt;stroke-linejoin:miter;stroke-miterlimit:4;stroke-opacity:1;stroke-dasharray:none;marker-end:url(#Arrow1Mend)"
   d="m 511.65462,766.6749 c 0,0 0,-74.24641 40.35131,-96.84314"
   id="path5209"
   inkscape:connector-curvature="0"
   transform="matrix(0.8,0,0,-0.8,0,841.88976)" /><path
   style="fill:none;stroke:#000000;stroke-width:3;stroke-linecap:butt;stroke-linejoin:miter;stroke-miterlimit:4;stroke-opacity:1;stroke-dasharray:none;marker-end:url(#Arrow1Mend)"
   d="m 656.91934,752.14843 c 0,0 19.36863,-51.64968 -43.57942,-103.29935"
   id="path5211"
   inkscape:connector-curvature="0"
   transform="matrix(0.8,0,0,-0.8,0,841.88976)" /><path
   d="m 198.80015,176.33647 c 0,26.183 11.266,47.406 25.164,47.406 13.902,0 25.168,-21.223 25.168,-47.406 l -50.332,0 z"
   style="fill:#4d4d4d;fill-opacity:1;fill-rule:nonzero;stroke:#000000;stroke-width:1.67999995;stroke-linecap:butt;stroke-linejoin:miter;stroke-miterlimit:4;stroke-opacity:1;stroke-dasharray:none"
   id="path22"
   inkscape:connector-curvature="0" /><path
   d="m 223.96415,220.97347 c -8.078,0 -14.629,6.55 -14.629,14.628 0,8.082 6.551,14.633 14.629,14.633 8.082,0 14.633,-6.551 14.633,-14.633 0,-8.078 -6.551,-14.628 -14.633,-14.628"
   style="fill:#4d4d4d;fill-opacity:1;fill-rule:nonzero;stroke:#000000;stroke-width:1.67999995;stroke-linecap:butt;stroke-linejoin:miter;stroke-miterlimit:4;stroke-opacity:1;stroke-dasharray:none"
   id="path26"
   inkscape:connector-curvature="0" /><text
   id="text28"
   transform="scale(1,-1)"
   x="186.04897"
   y="-150.08643"><tspan
     id="tspan30"
     sodipodi:role="line"
     y="-150.08643"
     x="186.04897 201.93056 213.69057 222.38176 231.25217 243.48257"
     style="font-size:22.39999962px;font-variant:normal;font-weight:normal;writing-mode:lr-tb;fill:#000000;fill-opacity:1;fill-rule:nonzero;stroke:none;font-family:Trebuchet MS;-inkscape-font-specification:TrebuchetMS">Martha</tspan></text>

<path
   d="m 385.80121,153.0453 c 0,26.179 11.27,47.406 25.168,47.406 13.899,0 25.164,-21.227 25.164,-47.406 l -50.332,0 z"
   style="fill:#666666;fill-opacity:1;fill-rule:nonzero;stroke:#000000;stroke-width:1.67999995;stroke-linecap:butt;stroke-linejoin:miter;stroke-miterlimit:4;stroke-opacity:1;stroke-dasharray:none"
   id="path34"
   inkscape:connector-curvature="0" /><path
   d="m 410.96921,197.6773 c -8.082,0 -14.632,6.551 -14.632,14.633 0,8.082 6.55,14.633 14.632,14.633 8.078,0 14.629,-6.551 14.629,-14.633 0,-8.082 -6.551,-14.633 -14.629,-14.633"
   style="fill:#666666;fill-opacity:1;fill-rule:nonzero;stroke:#000000;stroke-width:1.67999995;stroke-linecap:butt;stroke-linejoin:miter;stroke-miterlimit:4;stroke-opacity:1;stroke-dasharray:none"
   id="path38"
   inkscape:connector-curvature="0" /><text
   id="text40"
   transform="scale(1,-1)"
   x="384.79849"
   y="-126.79329"><tspan
     id="tspan42"
     sodipodi:role="line"
     y="-126.79329"
     x="384.79849 400.68008 407.06406 418.35367"
     style="font-size:22.39999962px;font-variant:normal;font-weight:normal;writing-mode:lr-tb;fill:#000000;fill-opacity:1;fill-rule:nonzero;stroke:none;font-family:Trebuchet MS;-inkscape-font-specification:TrebuchetMS">Mike</tspan></text>

<path
   d="m 23.546726,161.63635 c 0,26.183 11.27,47.406 25.168,47.406 13.899,0 25.164,-21.223 25.164,-47.406 l -50.332,0 z"
   style="fill:#4d4d4d;fill-opacity:1;fill-rule:nonzero;stroke:#000000;stroke-width:1.67999995;stroke-linecap:butt;stroke-linejoin:miter;stroke-miterlimit:4;stroke-opacity:1;stroke-dasharray:none"
   id="path46"
   inkscape:connector-curvature="0" /><path
   d="m 48.714726,206.27235 c -8.082,0 -14.632,6.551 -14.632,14.629 0,8.082 6.55,14.633 14.632,14.633 8.079,0 14.629,-6.551 14.629,-14.633 0,-8.078 -6.55,-14.629 -14.629,-14.629"
   style="fill:#4d4d4d;fill-opacity:1;fill-rule:nonzero;stroke:#000000;stroke-width:1.67999995;stroke-linecap:butt;stroke-linejoin:miter;stroke-miterlimit:4;stroke-opacity:1;stroke-dasharray:none"
   id="path50"
   inkscape:connector-curvature="0" /><text
   id="text52"
   transform="scale(1,-1)"
   x="27.115479"
   y="-135.38567"><tspan
     id="tspan54"
     sodipodi:role="line"
     y="-135.38567"
     x="27.115479 39.233879 51.24028"
     style="font-size:22.39999962px;font-variant:normal;font-weight:normal;writing-mode:lr-tb;fill:#000000;fill-opacity:1;fill-rule:nonzero;stroke:none;font-family:Trebuchet MS;-inkscape-font-specification:TrebuchetMS">Rob</tspan></text>

<path
   d="m 114.66466,133.05877 c 0,26.18 11.266,47.402 25.164,47.402 13.898,0 25.168,-21.222 25.168,-47.402 l -50.332,0 z"
   style="fill:#4d4d4d;fill-opacity:1;fill-rule:nonzero;stroke:#000000;stroke-width:1.67999995;stroke-linecap:butt;stroke-linejoin:miter;stroke-miterlimit:4;stroke-opacity:1;stroke-dasharray:none"
   id="path58"
   inkscape:connector-curvature="0" /><path
   d="m 139.82866,177.69177 c -8.082,0 -14.633,6.55 -14.633,14.632 0,8.079 6.551,14.629 14.633,14.629 8.082,0 14.633,-6.55 14.633,-14.629 0,-8.082 -6.551,-14.632 -14.633,-14.632"
   style="fill:#4d4d4d;fill-opacity:1;fill-rule:nonzero;stroke:#000000;stroke-width:1.67999995;stroke-linecap:butt;stroke-linejoin:miter;stroke-miterlimit:4;stroke-opacity:1;stroke-dasharray:none"
   id="path62"
   inkscape:connector-curvature="0" /><text
   id="text64"
   transform="scale(1,-1)"
   x="106.52738"
   y="-106.80601"><tspan
     id="tspan66"
     sodipodi:role="line"
     y="-106.80601"
     x="106.52738 117.27937 123.66338 142.25537 154.26176"
     style="font-size:22.39999962px;font-variant:normal;font-weight:normal;writing-mode:lr-tb;fill:#000000;fill-opacity:1;fill-rule:nonzero;stroke:none;font-family:Trebuchet MS;-inkscape-font-specification:TrebuchetMS">Simon</tspan></text>

<path
   style="fill:none;stroke:#000000;stroke-width:3;stroke-linecap:butt;stroke-linejoin:miter;stroke-miterlimit:4;stroke-opacity:1;stroke-dasharray:none;marker-start:url(#Arrow1Mstart);marker-end:url(#Arrow1Mend)"
   d="m 172.70361,392.21474 c 0,0 -174.3176624,82.31667 -9.68431,235.65165"
   id="path5427"
   inkscape:connector-curvature="0"
   transform="matrix(0.8,0,0,-0.8,0,841.88976)" /><path
   style="fill:none;stroke:#000000;stroke-width:3;stroke-linecap:butt;stroke-linejoin:miter;stroke-miterlimit:4;stroke-opacity:1;stroke-dasharray:none;marker-start:url(#Arrow1Mstart);marker-end:url(#Arrow1Mend)"
   d="m 606.88371,400.285 c 0,0 180.77387,50.03563 4.84216,230.8095"
   id="path5429"
   inkscape:connector-curvature="0"
   transform="matrix(0.8,0,0,-0.8,0,841.88976)" /><path
   style="fill:none;stroke:#000000;stroke-width:3;stroke-linecap:butt;stroke-linejoin:miter;stroke-miterlimit:4;stroke-opacity:1;stroke-dasharray:none;marker-end:url(#Arrow1Mend)"
   d="m 200.1425,337.33696 c 0,0 -54.87778,-125.89609 35.50915,-195.30035"
   id="path5431"
   inkscape:connector-curvature="0"
   transform="matrix(0.8,0,0,-0.8,0,841.88976)" /><path
   style="fill:none;stroke:#000000;stroke-width:3;stroke-linecap:butt;stroke-linejoin:miter;stroke-miterlimit:4;stroke-opacity:1;stroke-dasharray:none;marker-end:url(#Arrow1Mend)"
   d="m 390.60069,342.17912 c 0,0 -172.70361,-71.01831 -150.10688,-201.75656"
   id="path5433"
   inkscape:connector-curvature="0"
   transform="matrix(0.8,0,0,-0.8,0,841.88976)"
   sodipodi:nodetypes="cc" /><path
   style="fill:none;stroke:#000000;stroke-width:3;stroke-linecap:butt;stroke-linejoin:miter;stroke-miterlimit:4;stroke-opacity:1;stroke-dasharray:none;marker-end:url(#Arrow1Mend)"
   d="m 566.5324,332.4948 c 0,0 -266.31865,-41.96536 -306.66996,-188.84413"
   id="path5435"
   inkscape:connector-curvature="0"
   transform="matrix(0.8,0,0,-0.8,0,841.88976)" /><path
   style="fill:none;stroke:#000000;stroke-width:2.4000001;stroke-linecap:butt;stroke-linejoin:miter;stroke-miterlimit:4;stroke-opacity:1;stroke-dasharray:none;marker-end:url(#Arrow1Mend)"
   d="m 216.92865,734.71668 60.68837,0"
   id="path5437"
   inkscape:connector-curvature="0"
   sodipodi:nodetypes="cc" /><path
   style="fill:none;stroke:#000000;stroke-width:2.4000001;stroke-linecap:butt;stroke-linejoin:miter;stroke-miterlimit:4;stroke-opacity:1;stroke-dasharray:none;marker-end:url(#Arrow1Mend)"
   d="m 318.93676,734.71668 67.14458,0"
   id="path5439"
   inkscape:connector-curvature="0"
   sodipodi:nodetypes="cc" /><g
   id="g5137"
   transform="translate(-118.79426,4.7951569)"><path
   inkscape:connector-curvature="0"
   id="path78"
   style="fill:#e6e6e6;fill-opacity:1;fill-rule:nonzero;stroke:#000000;stroke-width:1.67999995;stroke-linecap:butt;stroke-linejoin:miter;stroke-miterlimit:4;stroke-opacity:1;stroke-dasharray:none"
   d="m 406.77747,499.57534 c 0,26.18 11.266,47.407 25.168,47.407 13.899,0 25.164,-21.227 25.164,-47.407 l -50.332,0 z" /><path
   inkscape:connector-curvature="0"
   id="path82"
   style="fill:#e6e6e6;fill-opacity:1;fill-rule:nonzero;stroke:#000000;stroke-width:1.67999995;stroke-linecap:butt;stroke-linejoin:miter;stroke-miterlimit:4;stroke-opacity:1;stroke-dasharray:none"
   d="m 431.94547,544.20834 c -8.082,0 -14.633,6.551 -14.633,14.633 0,8.082 6.551,14.633 14.633,14.633 8.078,0 14.629,-6.551 14.629,-14.633 0,-8.082 -6.551,-14.633 -14.629,-14.633" /><text
   y="-473.32388"
   x="392.58298"
   transform="scale(1,-1)"
   id="text84"><tspan
     style="font-size:22.39999962px;font-variant:normal;font-weight:normal;writing-mode:lr-tb;fill:#000000;fill-opacity:1;fill-rule:nonzero;stroke:none;font-family:Trebuchet MS;-inkscape-font-specification:TrebuchetMS"
     x="392.58298 404.56699 416.79739 428.01981 440.22781 452.45822"
     y="-473.32388"
     sodipodi:role="line"
     id="tspan86">Eugene</tspan></text>

</g><path
   d="m 498.6805,165.82052 c 0,26.18 11.266,47.406 25.168,47.406 13.899,0 25.164,-21.226 25.164,-47.406 l -50.332,0 z"
   style="fill:#4d4d4d;fill-opacity:1;fill-rule:nonzero;stroke:#000000;stroke-width:1.67999995;stroke-linecap:butt;stroke-linejoin:miter;stroke-miterlimit:4;stroke-opacity:1;stroke-dasharray:none"
   id="path90"
   inkscape:connector-curvature="0" /><path
   d="m 523.8485,210.45352 c -8.082,0 -14.632,6.551 -14.632,14.633 0,8.082 6.55,14.632 14.632,14.632 8.078,0 14.629,-6.55 14.629,-14.632 0,-8.082 -6.551,-14.633 -14.629,-14.633"
   style="fill:#4d4d4d;fill-opacity:1;fill-rule:nonzero;stroke:#000000;stroke-width:1.67999995;stroke-linecap:butt;stroke-linejoin:miter;stroke-miterlimit:4;stroke-opacity:1;stroke-dasharray:none"
   id="path94"
   inkscape:connector-curvature="0" /><text
   id="text96"
   transform="scale(1,-1)"
   x="498.13614"
   y="-139.56821"><tspan
     id="tspan98"
     sodipodi:role="line"
     y="-139.56821"
     x="498.13614 508.79855 520.55859 531.64661"
     style="font-size:22.39999962px;font-variant:normal;font-weight:normal;writing-mode:lr-tb;fill:#000000;fill-opacity:1;fill-rule:nonzero;stroke:none;font-family:Trebuchet MS;-inkscape-font-specification:TrebuchetMS">Jack</tspan></text>

<path
   d="m 202.23613,725.22534 c -15.305,0 -27.707,4.602 -27.707,10.278 0,5.676 12.402,10.281 27.707,10.281 15.301,0 27.707,-4.605 27.707,-10.281 0,-5.676 -12.406,-10.278 -27.707,-10.278"
   style="fill:#999999;fill-opacity:1;fill-rule:nonzero;stroke:#000000;stroke-width:1.67999995;stroke-linecap:butt;stroke-linejoin:miter;stroke-miterlimit:4;stroke-opacity:1;stroke-dasharray:none"
   id="path130"
   inkscape:connector-curvature="0" /><path
   d="m 305.53549,725.81213 c -15.305,0 -27.707,4.602 -27.707,10.278 0,5.676 12.402,10.277 27.707,10.277 15.301,0 27.707,-4.601 27.707,-10.277 0,-5.676 -12.406,-10.278 -27.707,-10.278"
   style="fill:#cccccc;fill-opacity:1;fill-rule:nonzero;stroke:#000000;stroke-width:1.67999995;stroke-linecap:butt;stroke-linejoin:miter;stroke-miterlimit:4;stroke-opacity:1;stroke-dasharray:none"
   id="path134"
   inkscape:connector-curvature="0" /><path
   d="m 412.70857,725.68492 c -15.305,0 -27.707,4.601 -27.707,10.277 0,5.676 12.402,10.277 27.707,10.277 15.301,0 27.707,-4.601 27.707,-10.277 0,-5.676 -12.406,-10.277 -27.707,-10.277"
   style="fill:#666666;fill-opacity:1;fill-rule:nonzero;stroke:#000000;stroke-width:1.67999995;stroke-linecap:butt;stroke-linejoin:miter;stroke-miterlimit:4;stroke-opacity:1;stroke-dasharray:none"
   id="path138"
   inkscape:connector-curvature="0" /><g
   id="g5131"
   transform="translate(164.95026,-1.8189011)"><path
   inkscape:connector-curvature="0"
   id="path182"
   style="fill:#e6e6e6;fill-opacity:1;fill-rule:nonzero;stroke:#000000;stroke-width:1.67999995;stroke-linecap:butt;stroke-linejoin:miter;stroke-miterlimit:4;stroke-opacity:1;stroke-dasharray:none"
   d="m 322.6628,506.58317 c 0,26.184 -11.265,47.407 -25.164,47.407 -13.898,0 -25.168,-21.223 -25.168,-47.407 l 50.332,0 z" /><path
   inkscape:connector-curvature="0"
   id="path186"
   style="fill:#e6e6e6;fill-opacity:1;fill-rule:nonzero;stroke:#000000;stroke-width:1.67999995;stroke-linecap:butt;stroke-linejoin:miter;stroke-miterlimit:4;stroke-opacity:1;stroke-dasharray:none"
   d="m 297.4988,551.22017 c 8.079,0 14.629,6.551 14.629,14.633 0,8.078 -6.55,14.629 -14.629,14.629 -8.082,0 -14.632,-6.551 -14.632,-14.629 0,-8.082 6.55,-14.633 14.632,-14.633" /><text
   y="-480.33414"
   x="269.9823"
   transform="scale(1,-1)"
   id="text188"><tspan
     style="font-size:22.39999962px;font-variant:normal;font-weight:normal;writing-mode:lr-tb;fill:#000000;fill-opacity:1;fill-rule:nonzero;stroke:none;font-family:Trebuchet MS;-inkscape-font-specification:TrebuchetMS"
     x="269.9823 282.8623 289.44794 301.20795 313.43835"
     y="-480.33414"
     sodipodi:role="line"
     id="tspan190">Klaus</tspan></text>

</g><g
   id="g5125"
   transform="translate(0.2557645,5.5042725)"><path
   inkscape:connector-curvature="0"
   id="path202"
   style="fill:#e6e6e6;fill-opacity:1;fill-rule:nonzero;stroke:#000000;stroke-width:1.67999995;stroke-linecap:butt;stroke-linejoin:miter;stroke-miterlimit:4;stroke-opacity:1;stroke-dasharray:none"
   d="m 134.04688,495.39024 c 0,26.18 11.265,47.402 25.164,47.402 13.898,0 25.168,-21.222 25.168,-47.402 l -50.332,0 z" /><path
   inkscape:connector-curvature="0"
   id="path206"
   style="fill:#e6e6e6;fill-opacity:1;fill-rule:nonzero;stroke:#000000;stroke-width:1.67999995;stroke-linecap:butt;stroke-linejoin:miter;stroke-miterlimit:4;stroke-opacity:1;stroke-dasharray:none"
   d="m 159.21088,540.02324 c -8.078,0 -14.629,6.551 -14.629,14.633 0,8.078 6.551,14.629 14.629,14.629 8.082,0 14.633,-6.551 14.633,-14.629 0,-8.082 -6.551,-14.633 -14.633,-14.633" /><text
   y="-469.13727"
   x="132.31909"
   transform="scale(1,-1)"
   id="text208"><tspan
     style="font-size:22.39999962px;font-variant:normal;font-weight:normal;writing-mode:lr-tb;fill:#000000;fill-opacity:1;fill-rule:nonzero;stroke:none;font-family:Trebuchet MS;-inkscape-font-specification:TrebuchetMS"
     x="132.31909 142.98151 154.98792 167.21832"
     y="-469.13727"
     sodipodi:role="line"
     id="tspan210">John</tspan></text>

</g><g
   id="g5083"
   transform="translate(6.4562097,-41.965367)"><text
   transform="scale(1,-1)"
   y="-455.84647"
   x="152.09276"
   id="text14-9"
   style="font-size:12px;text-align:center;text-anchor:middle"><tspan
     style="font-size:22.39999962px;font-variant:normal;font-weight:normal;text-align:center;writing-mode:lr-tb;text-anchor:middle;fill:#000000;fill-opacity:1;fill-rule:nonzero;stroke:none;font-family:Trebuchet MS;-inkscape-font-specification:TrebuchetMS"
     x="152.09276"
     y="-455.84647"
     sodipodi:role="line"
     id="tspan18-1">Library</tspan><tspan
     id="tspan5033"
     style="font-size:22.39999962px;font-variant:normal;font-weight:normal;text-align:center;writing-mode:lr-tb;text-anchor:middle;fill:#000000;fill-opacity:1;fill-rule:nonzero;stroke:none;font-family:Trebuchet MS;-inkscape-font-specification:TrebuchetMS"
     x="152.09276"
     y="-427.84647"
     sodipodi:role="line">Repo</tspan></text>

<g
   transform="translate(-2.0519906,0)"
   id="g5043"><path
     d="m 154.8885,341.96039 c -15.305,0 -27.707,4.601 -27.707,10.277 0,5.676 12.402,10.277 27.707,10.277 15.301,0 27.707,-4.601 27.707,-10.277 0,-5.676 -12.406,-10.277 -27.707,-10.277"
     style="fill:#999999;fill-opacity:1;fill-rule:nonzero;stroke:#000000;stroke-width:1.67999995;stroke-linecap:butt;stroke-linejoin:miter;stroke-miterlimit:4;stroke-opacity:1;stroke-dasharray:none"
     id="path110-6"
     inkscape:connector-curvature="0" /><path
     d="m 154.8885,348.28839 c -15.305,0 -27.707,4.601 -27.707,10.277 0,5.676 12.402,10.277 27.707,10.277 15.301,0 27.707,-4.601 27.707,-10.277 0,-5.676 -12.406,-10.277 -27.707,-10.277"
     style="fill:#333333;fill-opacity:1;fill-rule:nonzero;stroke:#000000;stroke-width:1.67999995;stroke-linecap:butt;stroke-linejoin:miter;stroke-miterlimit:4;stroke-opacity:1;stroke-dasharray:none"
     id="path114-2"
     inkscape:connector-curvature="0" /><path
     d="m 154.8885,355.33139 c -15.305,0 -27.707,4.601 -27.707,10.277 0,5.676 12.402,10.277 27.707,10.277 15.301,0 27.707,-4.601 27.707,-10.277 0,-5.676 -12.406,-10.277 -27.707,-10.277"
     style="fill:#cccccc;fill-opacity:1;fill-rule:nonzero;stroke:#000000;stroke-width:1.67999995;stroke-linecap:butt;stroke-linejoin:miter;stroke-miterlimit:4;stroke-opacity:1;stroke-dasharray:none"
     id="path118-1"
     inkscape:connector-curvature="0" /><path
     d="m 154.8885,361.65939 c -15.305,0 -27.707,4.601 -27.707,10.277 0,5.676 12.402,10.278 27.707,10.278 15.301,0 27.707,-4.602 27.707,-10.278 0,-5.676 -12.406,-10.277 -27.707,-10.277"
     style="fill:#999999;fill-opacity:1;fill-rule:nonzero;stroke:#000000;stroke-width:1.67999995;stroke-linecap:butt;stroke-linejoin:miter;stroke-miterlimit:4;stroke-opacity:1;stroke-dasharray:none"
     id="path122-0"
     inkscape:connector-curvature="0" /><path
     d="m 154.8885,368.30739 c -15.305,0 -27.707,4.602 -27.707,10.278 0,5.675 12.402,10.277 27.707,10.277 15.301,0 27.707,-4.602 27.707,-10.277 0,-5.676 -12.406,-10.278 -27.707,-10.278"
     style="fill:#666666;fill-opacity:1;fill-rule:nonzero;stroke:#000000;stroke-width:1.67999995;stroke-linecap:butt;stroke-linejoin:miter;stroke-miterlimit:4;stroke-opacity:1;stroke-dasharray:none"
     id="path126-5"
     inkscape:connector-curvature="0" /><path
     d="m 154.8885,374.63539 c -15.305,0 -27.707,4.602 -27.707,10.278 0,5.676 12.402,10.28099 27.707,10.28099 15.301,0 27.707,-4.60499 27.707,-10.28099 0,-5.676 -12.406,-10.278 -27.707,-10.278"
     style="fill:#999999;fill-opacity:1;fill-rule:nonzero;stroke:#000000;stroke-width:1.67999995;stroke-linecap:butt;stroke-linejoin:miter;stroke-miterlimit:4;stroke-opacity:1;stroke-dasharray:none"
     id="path130-3"
     inkscape:connector-curvature="0" /><path
     d="m 154.8885,381.67839 c -15.305,0 -27.707,4.602 -27.707,10.278 0,5.67599 12.402,10.27699 27.707,10.27699 15.301,0 27.707,-4.601 27.707,-10.27699 0,-5.676 -12.406,-10.278 -27.707,-10.278"
     style="fill:#cccccc;fill-opacity:1;fill-rule:nonzero;stroke:#000000;stroke-width:1.67999995;stroke-linecap:butt;stroke-linejoin:miter;stroke-miterlimit:4;stroke-opacity:1;stroke-dasharray:none"
     id="path134-2"
     inkscape:connector-curvature="0" /><path
     d="m 154.8885,388.00739 c -15.305,0 -27.707,4.60099 -27.707,10.27699 0,5.676 12.402,10.277 27.707,10.277 15.301,0 27.707,-4.601 27.707,-10.277 0,-5.676 -12.406,-10.27699 -27.707,-10.27699"
     style="fill:#666666;fill-opacity:1;fill-rule:nonzero;stroke:#000000;stroke-width:1.67999995;stroke-linecap:butt;stroke-linejoin:miter;stroke-miterlimit:4;stroke-opacity:1;stroke-dasharray:none"
     id="path138-1"
     inkscape:connector-curvature="0" /></g></g><g
   id="g5097"
   transform="translate(177.27033,-39.136792)"><text
   transform="scale(1,-1)"
   y="-457.13773"
   x="284.66266"
   id="text14-9-3"
   style="font-size:12px;text-align:center;text-anchor:middle"><tspan
     y="-457.13773"
     style="font-size:22.39999962px;font-variant:normal;font-weight:normal;text-align:center;writing-mode:lr-tb;text-anchor:middle;fill:#000000;fill-opacity:1;fill-rule:nonzero;stroke:none;font-family:Trebuchet MS;-inkscape-font-specification:TrebuchetMS"
     x="284.66266"
     sodipodi:role="line"
     id="tspan18-1-3">UI</tspan><tspan
     id="tspan5037"
     y="-429.13773"
     style="font-size:22.39999962px;font-variant:normal;font-weight:normal;text-align:center;writing-mode:lr-tb;text-anchor:middle;fill:#000000;fill-opacity:1;fill-rule:nonzero;stroke:none;font-family:Trebuchet MS;-inkscape-font-specification:TrebuchetMS"
     x="284.66266"
     sodipodi:role="line">Repo</tspan></text>

<g
   transform="translate(-4.0009347,0)"
   id="g5053"><path
     d="m 289.17766,343.25162 c -15.305,0 -27.707,4.601 -27.707,10.277 0,5.676 12.402,10.277 27.707,10.277 15.301,0 27.707,-4.601 27.707,-10.277 0,-5.676 -12.406,-10.277 -27.707,-10.277"
     style="fill:#999999;fill-opacity:1;fill-rule:nonzero;stroke:#000000;stroke-width:1.67999995;stroke-linecap:butt;stroke-linejoin:miter;stroke-miterlimit:4;stroke-opacity:1;stroke-dasharray:none"
     id="path110-6-8"
     inkscape:connector-curvature="0" /><path
     d="m 289.17766,349.57962 c -15.305,0 -27.707,4.601 -27.707,10.277 0,5.676 12.402,10.277 27.707,10.277 15.301,0 27.707,-4.601 27.707,-10.277 0,-5.676 -12.406,-10.277 -27.707,-10.277"
     style="fill:#333333;fill-opacity:1;fill-rule:nonzero;stroke:#000000;stroke-width:1.67999995;stroke-linecap:butt;stroke-linejoin:miter;stroke-miterlimit:4;stroke-opacity:1;stroke-dasharray:none"
     id="path114-2-7"
     inkscape:connector-curvature="0" /><path
     d="m 289.17766,356.62262 c -15.305,0 -27.707,4.601 -27.707,10.277 0,5.676 12.402,10.277 27.707,10.277 15.301,0 27.707,-4.601 27.707,-10.277 0,-5.676 -12.406,-10.277 -27.707,-10.277"
     style="fill:#cccccc;fill-opacity:1;fill-rule:nonzero;stroke:#000000;stroke-width:1.67999995;stroke-linecap:butt;stroke-linejoin:miter;stroke-miterlimit:4;stroke-opacity:1;stroke-dasharray:none"
     id="path118-1-9"
     inkscape:connector-curvature="0" /><path
     d="m 289.17766,362.95062 c -15.305,0 -27.707,4.601 -27.707,10.277 0,5.676 12.402,10.278 27.707,10.278 15.301,0 27.707,-4.602 27.707,-10.278 0,-5.676 -12.406,-10.277 -27.707,-10.277"
     style="fill:#999999;fill-opacity:1;fill-rule:nonzero;stroke:#000000;stroke-width:1.67999995;stroke-linecap:butt;stroke-linejoin:miter;stroke-miterlimit:4;stroke-opacity:1;stroke-dasharray:none"
     id="path122-0-3"
     inkscape:connector-curvature="0" /><path
     d="m 289.17766,369.59862 c -15.305,0 -27.707,4.602 -27.707,10.278 0,5.675 12.402,10.277 27.707,10.277 15.301,0 27.707,-4.602 27.707,-10.277 0,-5.676 -12.406,-10.278 -27.707,-10.278"
     style="fill:#666666;fill-opacity:1;fill-rule:nonzero;stroke:#000000;stroke-width:1.67999995;stroke-linecap:butt;stroke-linejoin:miter;stroke-miterlimit:4;stroke-opacity:1;stroke-dasharray:none"
     id="path126-5-8"
     inkscape:connector-curvature="0" /><path
     d="m 289.17766,375.92662 c -15.305,0 -27.707,4.602 -27.707,10.278 0,5.676 12.402,10.28099 27.707,10.28099 15.301,0 27.707,-4.60499 27.707,-10.28099 0,-5.676 -12.406,-10.278 -27.707,-10.278"
     style="fill:#999999;fill-opacity:1;fill-rule:nonzero;stroke:#000000;stroke-width:1.67999995;stroke-linecap:butt;stroke-linejoin:miter;stroke-miterlimit:4;stroke-opacity:1;stroke-dasharray:none"
     id="path130-3-8"
     inkscape:connector-curvature="0" /><path
     d="m 289.17766,382.96962 c -15.305,0 -27.707,4.602 -27.707,10.278 0,5.67599 12.402,10.27699 27.707,10.27699 15.301,0 27.707,-4.601 27.707,-10.27699 0,-5.676 -12.406,-10.278 -27.707,-10.278"
     style="fill:#cccccc;fill-opacity:1;fill-rule:nonzero;stroke:#000000;stroke-width:1.67999995;stroke-linecap:butt;stroke-linejoin:miter;stroke-miterlimit:4;stroke-opacity:1;stroke-dasharray:none"
     id="path134-2-4"
     inkscape:connector-curvature="0" /><path
     d="m 289.17766,389.29862 c -15.305,0 -27.707,4.60099 -27.707,10.27699 0,5.676 12.402,10.277 27.707,10.277 15.301,0 27.707,-4.601 27.707,-10.277 0,-5.676 -12.406,-10.27699 -27.707,-10.27699"
     style="fill:#666666;fill-opacity:1;fill-rule:nonzero;stroke:#000000;stroke-width:1.67999995;stroke-linecap:butt;stroke-linejoin:miter;stroke-miterlimit:4;stroke-opacity:1;stroke-dasharray:none"
     id="path138-1-0"
     inkscape:connector-curvature="0" /></g></g><g
   id="g5111"
   transform="translate(-110.27143,-44.547839)"><text
   transform="scale(1,-1)"
   y="-459.72018"
   x="395.8634"
   id="text14-9-8"
   style="font-size:12px"><tspan
     style="font-size:22.39999962px;font-variant:normal;font-weight:normal;writing-mode:lr-tb;fill:#000000;fill-opacity:1;fill-rule:nonzero;stroke:none;font-family:Trebuchet MS;-inkscape-font-specification:TrebuchetMS"
     x="395.8634"
     y="-459.72018"
     sodipodi:role="line"
     id="tspan18-1-8">Tools</tspan><tspan
     id="tspan5041"
     style="font-size:22.39999962px;font-variant:normal;font-weight:normal;writing-mode:lr-tb;fill:#000000;fill-opacity:1;fill-rule:nonzero;stroke:none;font-family:Trebuchet MS;-inkscape-font-specification:TrebuchetMS"
     x="395.8634"
     y="-431.72018"
     sodipodi:role="line">Repo</tspan></text>

<g
   transform="translate(-4.1868613,0)"
   id="g5063"><path
     d="m 424.75807,345.8341 c -15.305,0 -27.707,4.601 -27.707,10.277 0,5.676 12.402,10.277 27.707,10.277 15.301,0 27.707,-4.601 27.707,-10.277 0,-5.676 -12.406,-10.277 -27.707,-10.277"
     style="fill:#999999;fill-opacity:1;fill-rule:nonzero;stroke:#000000;stroke-width:1.67999995;stroke-linecap:butt;stroke-linejoin:miter;stroke-miterlimit:4;stroke-opacity:1;stroke-dasharray:none"
     id="path110-6-2"
     inkscape:connector-curvature="0" /><path
     d="m 424.75807,352.1621 c -15.305,0 -27.707,4.601 -27.707,10.277 0,5.676 12.402,10.277 27.707,10.277 15.301,0 27.707,-4.601 27.707,-10.277 0,-5.676 -12.406,-10.277 -27.707,-10.277"
     style="fill:#333333;fill-opacity:1;fill-rule:nonzero;stroke:#000000;stroke-width:1.67999995;stroke-linecap:butt;stroke-linejoin:miter;stroke-miterlimit:4;stroke-opacity:1;stroke-dasharray:none"
     id="path114-2-3"
     inkscape:connector-curvature="0" /><path
     d="m 424.75807,359.2051 c -15.305,0 -27.707,4.601 -27.707,10.277 0,5.676 12.402,10.277 27.707,10.277 15.301,0 27.707,-4.601 27.707,-10.277 0,-5.676 -12.406,-10.277 -27.707,-10.277"
     style="fill:#cccccc;fill-opacity:1;fill-rule:nonzero;stroke:#000000;stroke-width:1.67999995;stroke-linecap:butt;stroke-linejoin:miter;stroke-miterlimit:4;stroke-opacity:1;stroke-dasharray:none"
     id="path118-1-8"
     inkscape:connector-curvature="0" /><path
     d="m 424.75807,365.5331 c -15.305,0 -27.707,4.601 -27.707,10.277 0,5.676 12.402,10.278 27.707,10.278 15.301,0 27.707,-4.602 27.707,-10.278 0,-5.676 -12.406,-10.277 -27.707,-10.277"
     style="fill:#999999;fill-opacity:1;fill-rule:nonzero;stroke:#000000;stroke-width:1.67999995;stroke-linecap:butt;stroke-linejoin:miter;stroke-miterlimit:4;stroke-opacity:1;stroke-dasharray:none"
     id="path122-0-5"
     inkscape:connector-curvature="0" /><path
     d="m 424.75807,372.1811 c -15.305,0 -27.707,4.602 -27.707,10.278 0,5.675 12.402,10.277 27.707,10.277 15.301,0 27.707,-4.602 27.707,-10.277 0,-5.676 -12.406,-10.278 -27.707,-10.278"
     style="fill:#666666;fill-opacity:1;fill-rule:nonzero;stroke:#000000;stroke-width:1.67999995;stroke-linecap:butt;stroke-linejoin:miter;stroke-miterlimit:4;stroke-opacity:1;stroke-dasharray:none"
     id="path126-5-0"
     inkscape:connector-curvature="0" /><path
     d="m 424.75807,378.5091 c -15.305,0 -27.707,4.602 -27.707,10.278 0,5.676 12.402,10.28099 27.707,10.28099 15.301,0 27.707,-4.60499 27.707,-10.28099 0,-5.676 -12.406,-10.278 -27.707,-10.278"
     style="fill:#999999;fill-opacity:1;fill-rule:nonzero;stroke:#000000;stroke-width:1.67999995;stroke-linecap:butt;stroke-linejoin:miter;stroke-miterlimit:4;stroke-opacity:1;stroke-dasharray:none"
     id="path130-3-5"
     inkscape:connector-curvature="0" /><path
     d="m 424.75807,385.5521 c -15.305,0 -27.707,4.602 -27.707,10.278 0,5.67599 12.402,10.27699 27.707,10.27699 15.301,0 27.707,-4.601 27.707,-10.27699 0,-5.676 -12.406,-10.278 -27.707,-10.278"
     style="fill:#cccccc;fill-opacity:1;fill-rule:nonzero;stroke:#000000;stroke-width:1.67999995;stroke-linecap:butt;stroke-linejoin:miter;stroke-miterlimit:4;stroke-opacity:1;stroke-dasharray:none"
     id="path134-2-9"
     inkscape:connector-curvature="0" /><path
     d="m 424.75807,391.8811 c -15.305,0 -27.707,4.60099 -27.707,10.27699 0,5.676 12.402,10.277 27.707,10.277 15.301,0 27.707,-4.601 27.707,-10.277 0,-5.676 -12.406,-10.27699 -27.707,-10.27699"
     style="fill:#666666;fill-opacity:1;fill-rule:nonzero;stroke:#000000;stroke-width:1.67999995;stroke-linecap:butt;stroke-linejoin:miter;stroke-miterlimit:4;stroke-opacity:1;stroke-dasharray:none"
     id="path138-1-2"
     inkscape:connector-curvature="0" /></g></g><text
   xml:space="preserve"
   style="font-size:19.20000076px;font-style:normal;font-variant:normal;font-weight:normal;font-stretch:normal;line-height:125%;letter-spacing:0px;word-spacing:0px;fill:#000000;fill-opacity:1;stroke:none;font-family:Trebuchet MS;-inkscape-font-specification:Trebuchet MS"
   x="188.52132"
   y="-751.50281"
   id="text5151"
   sodipodi:linespacing="125%"
   transform="scale(1,-1)"><tspan
     sodipodi:role="line"
     id="tspan5153"
     x="188.52132"
     y="-751.50281">dev</tspan></text>

<text
   xml:space="preserve"
   style="font-size:19.20000076px;font-style:normal;font-variant:normal;font-weight:normal;font-stretch:normal;line-height:125%;letter-spacing:0px;word-spacing:0px;fill:#000000;fill-opacity:1;stroke:none;font-family:Trebuchet MS;-inkscape-font-specification:Trebuchet MS"
   x="295.61743"
   y="-753.55713"
   id="text5151-9"
   sodipodi:linespacing="125%"
   transform="scale(1,-1)"><tspan
     sodipodi:role="line"
     id="tspan5153-8"
     x="295.61743"
     y="-753.55713">qa</tspan></text>

<text
   xml:space="preserve"
   style="font-size:40px;font-style:normal;font-weight:normal;line-height:125%;letter-spacing:0px;word-spacing:0px;fill:#000000;fill-opacity:1;stroke:none;font-family:Sans"
   x="83.930725"
   y="196.9144"
   id="text5176"
   sodipodi:linespacing="125%"
   transform="matrix(0.8,0,0,-0.8,0,841.88976)"><tspan
     sodipodi:role="line"
     id="tspan5178"
     x="83.930725"
     y="196.9144" /></text>

<text
   xml:space="preserve"
   style="font-size:19.20000076px;font-style:normal;font-variant:normal;font-weight:normal;font-stretch:normal;line-height:125%;letter-spacing:0px;word-spacing:0px;fill:#000000;fill-opacity:1;stroke:none;font-family:Trebuchet MS;-inkscape-font-specification:Trebuchet MS"
   x="384.75598"
   y="-753.52246"
   id="text5151-9-6"
   sodipodi:linespacing="125%"
   transform="scale(1,-1)"><tspan
     sodipodi:role="line"
     id="tspan5153-8-0"
     x="384.75598"
     y="-753.52246">release</tspan></text>

</g></svg>